<svg width="402.833008" height="377.143311" viewBox="0 0 402.833 377.143" fill="none" xmlns="http://www.w3.org/2000/svg" xmlns:xlink="http://www.w3.org/1999/xlink">
	<desc>
			Created with Pixso.
	</desc>
	<defs/>
	<path id="Vector" d="M402.33 85.02L0.5 85.02L0.5 253.63L402.33 253.63L402.33 85.02Z" fill="#38BFF2" fill-opacity="1.000000" fill-rule="nonzero"/>
	<path id="Vector" d="M402.33 85.02L402.33 253.63L0.5 253.63L0.5 85.02L402.33 85.02Z" stroke="#263238" stroke-opacity="1.000000" stroke-width="1.000000" stroke-linejoin="round"/>
	<path id="Vector" d="M46.69 95.22L8.89 95.22L8.89 116.07L46.69 116.07L46.69 95.22Z" fill="#FFFFFF" fill-opacity="1.000000" fill-rule="nonzero"/>
	<path id="Vector" d="M46.69 95.22L46.69 116.07L8.89 116.07L8.89 95.22L46.69 95.22Z" stroke="#263238" stroke-opacity="1.000000" stroke-width="1.000000"/>
	<path id="Vector" d="M393.03 196.86L333.48 196.86L333.48 217.7L393.03 217.7L393.03 196.86Z" fill="#FFFFFF" fill-opacity="1.000000" fill-rule="nonzero"/>
	<path id="Vector" d="M393.03 196.86L393.03 217.7L333.48 217.7L333.48 196.86L393.03 196.86Z" stroke="#263238" stroke-opacity="1.000000" stroke-width="1.000000"/>
	<path id="Vector" d="M393.04 121.26L356.29 121.26L356.29 142.1L393.04 142.1L393.04 121.26Z" fill="#FFFFFF" fill-opacity="1.000000" fill-rule="nonzero"/>
	<path id="Vector" d="M393.04 121.26L393.04 142.1L356.29 142.1L356.29 121.26L393.04 121.26Z" stroke="#263238" stroke-opacity="1.000000" stroke-width="1.000000"/>
	<path id="Vector" d="M46.69 171.15L8.89 171.15L8.89 192L46.69 192L46.69 171.15Z" fill="#FFFFFF" fill-opacity="1.000000" fill-rule="nonzero"/>
	<path id="Vector" d="M46.69 171.15L46.69 192L8.89 192L8.89 171.15L46.69 171.15Z" stroke="#263238" stroke-opacity="1.000000" stroke-width="1.000000"/>
	<path id="Vector" d="M39.5 146.04L8.89 146.04L8.89 166.88L39.5 166.88L39.5 146.04Z" fill="#FFFFFF" fill-opacity="1.000000" fill-rule="nonzero"/>
	<path id="Vector" d="M39.5 146.04L39.5 166.88L8.89 166.88L8.89 146.04L39.5 146.04Z" stroke="#263238" stroke-opacity="1.000000" stroke-width="1.000000"/>
	<path id="Vector" d="M29.81 120.63L8.89 120.63L8.89 141.47L29.81 141.47L29.81 120.63Z" fill="#FFFFFF" fill-opacity="1.000000" fill-rule="nonzero"/>
	<path id="Vector" d="M29.81 120.63L29.81 141.47L8.89 141.47L8.89 120.63L29.81 120.63Z" stroke="#263238" stroke-opacity="1.000000" stroke-width="1.000000"/>
	<path id="Vector" d="M56.54 120.63L35.61 120.63L35.61 141.47L56.54 141.47L56.54 120.63Z" fill="#FFFFFF" fill-opacity="1.000000" fill-rule="nonzero"/>
	<path id="Vector" d="M56.54 120.63L56.54 141.47L35.61 141.47L35.61 120.63L56.54 120.63Z" stroke="#263238" stroke-opacity="1.000000" stroke-width="1.000000"/>
	<path id="Vector" d="M83.24 120.63L62.32 120.63L62.32 141.47L83.24 141.47L83.24 120.63Z" fill="#FFFFFF" fill-opacity="1.000000" fill-rule="nonzero"/>
	<path id="Vector" d="M83.24 120.63L83.24 141.47L62.32 141.47L62.32 120.63L83.24 120.63Z" stroke="#263238" stroke-opacity="1.000000" stroke-width="1.000000"/>
	<path id="Vector" d="M109.95 120.63L89.03 120.63L89.03 141.47L109.95 141.47L109.95 120.63Z" fill="#FFFFFF" fill-opacity="1.000000" fill-rule="nonzero"/>
	<path id="Vector" d="M109.95 120.63L109.95 141.47L89.03 141.47L89.03 120.63L109.95 120.63Z" stroke="#263238" stroke-opacity="1.000000" stroke-width="1.000000"/>
	<path id="Vector" d="M136.67 120.63L115.75 120.63L115.75 141.47L136.67 141.47L136.67 120.63Z" fill="#FFFFFF" fill-opacity="1.000000" fill-rule="nonzero"/>
	<path id="Vector" d="M136.67 120.63L136.67 141.47L115.75 141.47L115.75 120.63L136.67 120.63Z" stroke="#263238" stroke-opacity="1.000000" stroke-width="1.000000"/>
	<path id="Vector" d="M163.38 120.63L142.45 120.63L142.45 141.47L163.38 141.47L163.38 120.63Z" fill="#FFFFFF" fill-opacity="1.000000" fill-rule="nonzero"/>
	<path id="Vector" d="M163.38 120.63L163.38 141.47L142.45 141.47L142.45 120.63L163.38 120.63Z" stroke="#263238" stroke-opacity="1.000000" stroke-width="1.000000"/>
	<path id="Vector" d="M190.08 120.63L169.16 120.63L169.16 141.47L190.08 141.47L190.08 120.63Z" fill="#FFFFFF" fill-opacity="1.000000" fill-rule="nonzero"/>
	<path id="Vector" d="M190.08 120.63L190.08 141.47L169.16 141.47L169.16 120.63L190.08 120.63Z" stroke="#263238" stroke-opacity="1.000000" stroke-width="1.000000"/>
	<path id="Vector" d="M216.8 120.63L195.88 120.63L195.88 141.47L216.8 141.47L216.8 120.63Z" fill="#FFFFFF" fill-opacity="1.000000" fill-rule="nonzero"/>
	<path id="Vector" d="M216.8 120.63L216.8 141.47L195.88 141.47L195.88 120.63L216.8 120.63Z" stroke="#263238" stroke-opacity="1.000000" stroke-width="1.000000"/>
	<path id="Vector" d="M243.51 120.63L222.59 120.63L222.59 141.47L243.51 141.47L243.51 120.63Z" fill="#FFFFFF" fill-opacity="1.000000" fill-rule="nonzero"/>
	<path id="Vector" d="M243.51 120.63L243.51 141.47L222.59 141.47L222.59 120.63L243.51 120.63Z" stroke="#263238" stroke-opacity="1.000000" stroke-width="1.000000"/>
	<path id="Vector" d="M270.23 120.63L249.31 120.63L249.31 141.47L270.23 141.47L270.23 120.63Z" fill="#FFFFFF" fill-opacity="1.000000" fill-rule="nonzero"/>
	<path id="Vector" d="M270.23 120.63L270.23 141.47L249.31 141.47L249.31 120.63L270.23 120.63Z" stroke="#263238" stroke-opacity="1.000000" stroke-width="1.000000"/>
	<path id="Vector" d="M296.94 120.63L276.01 120.63L276.01 141.47L296.94 141.47L296.94 120.63Z" fill="#FFFFFF" fill-opacity="1.000000" fill-rule="nonzero"/>
	<path id="Vector" d="M296.94 120.63L296.94 141.47L276.01 141.47L276.01 120.63L296.94 120.63Z" stroke="#263238" stroke-opacity="1.000000" stroke-width="1.000000"/>
	<path id="Vector" d="M323.64 120.63L302.72 120.63L302.72 141.47L323.64 141.47L323.64 120.63Z" fill="#FFFFFF" fill-opacity="1.000000" fill-rule="nonzero"/>
	<path id="Vector" d="M323.64 120.63L323.64 141.47L302.72 141.47L302.72 120.63L323.64 120.63Z" stroke="#263238" stroke-opacity="1.000000" stroke-width="1.000000"/>
	<path id="Vector" d="M350.36 120.63L329.44 120.63L329.44 141.47L350.36 141.47L350.36 120.63Z" fill="#FFFFFF" fill-opacity="1.000000" fill-rule="nonzero"/>
	<path id="Vector" d="M350.36 120.63L350.36 141.47L329.44 141.47L329.44 120.63L350.36 120.63Z" stroke="#263238" stroke-opacity="1.000000" stroke-width="1.000000"/>
	<path id="Vector" d="M29.81 222.56L8.89 222.56L8.89 243.4L29.81 243.4L29.81 222.56Z" fill="#FFFFFF" fill-opacity="1.000000" fill-rule="nonzero"/>
	<path id="Vector" d="M29.81 222.56L29.81 243.4L8.89 243.4L8.89 222.56L29.81 222.56Z" stroke="#263238" stroke-opacity="1.000000" stroke-width="1.000000"/>
	<path id="Vector" d="M56.54 222.56L35.61 222.56L35.61 243.4L56.54 243.4L56.54 222.56Z" fill="#FFFFFF" fill-opacity="1.000000" fill-rule="nonzero"/>
	<path id="Vector" d="M56.54 222.56L56.54 243.4L35.61 243.4L35.61 222.56L56.54 222.56Z" stroke="#263238" stroke-opacity="1.000000" stroke-width="1.000000"/>
	<path id="Vector" d="M83.24 222.56L62.32 222.56L62.32 243.4L83.24 243.4L83.24 222.56Z" fill="#FFFFFF" fill-opacity="1.000000" fill-rule="nonzero"/>
	<path id="Vector" d="M83.24 222.56L83.24 243.4L62.32 243.4L62.32 222.56L83.24 222.56Z" stroke="#263238" stroke-opacity="1.000000" stroke-width="1.000000"/>
	<path id="Vector" d="M114.56 222.56L89.03 222.56L89.03 243.4L114.56 243.4L114.56 222.56Z" fill="#FFFFFF" fill-opacity="1.000000" fill-rule="nonzero"/>
	<path id="Vector" d="M114.56 222.56L114.56 243.4L89.03 243.4L89.03 222.56L114.56 222.56Z" stroke="#263238" stroke-opacity="1.000000" stroke-width="1.000000"/>
	<path id="Vector" d="M248.12 222.56L120.35 222.56L120.35 243.4L248.12 243.4L248.12 222.56Z" fill="#FFFFFF" fill-opacity="1.000000" fill-rule="nonzero"/>
	<path id="Vector" d="M248.12 222.56L248.12 243.4L120.35 243.4L120.35 222.56L248.12 222.56Z" stroke="#263238" stroke-opacity="1.000000" stroke-width="1.000000"/>
	<path id="Vector" d="M338.71 222.56L317.79 222.56L317.79 243.4L338.71 243.4L338.71 222.56Z" fill="#FFFFFF" fill-opacity="1.000000" fill-rule="nonzero"/>
	<path id="Vector" d="M338.71 222.56L338.71 243.4L317.79 243.4L317.79 222.56L338.71 222.56Z" stroke="#263238" stroke-opacity="1.000000" stroke-width="1.000000"/>
	<path id="Vector" d="M365.47 222.56L344.55 222.56L344.55 243.4L365.47 243.4L365.47 222.56Z" fill="#FFFFFF" fill-opacity="1.000000" fill-rule="nonzero"/>
	<path id="Vector" d="M365.47 222.56L365.47 243.4L344.55 243.4L344.55 222.56L365.47 222.56Z" stroke="#263238" stroke-opacity="1.000000" stroke-width="1.000000"/>
	<path id="Vector" d="M285.84 222.56L253.35 222.56L253.35 243.4L285.84 243.4L285.84 222.56Z" fill="#FFFFFF" fill-opacity="1.000000" fill-rule="nonzero"/>
	<path id="Vector" d="M285.84 222.56L285.84 243.4L253.35 243.4L253.35 222.56L285.84 222.56Z" stroke="#263238" stroke-opacity="1.000000" stroke-width="1.000000"/>
	<path id="Vector" d="M393.03 222.56L372.1 222.56L372.1 243.4L393.03 243.4L393.03 222.56Z" fill="#FFFFFF" fill-opacity="1.000000" fill-rule="nonzero"/>
	<path id="Vector" d="M393.03 222.56L393.03 243.4L372.1 243.4L372.1 222.56L393.03 222.56Z" stroke="#263238" stroke-opacity="1.000000" stroke-width="1.000000"/>
	<path id="Vector" d="M66.36 146.04L45.44 146.04L45.44 166.88L66.36 166.88L66.36 146.04Z" fill="#FFFFFF" fill-opacity="1.000000" fill-rule="nonzero"/>
	<path id="Vector" d="M66.36 146.04L66.36 166.88L45.44 166.88L45.44 146.04L66.36 146.04Z" stroke="#263238" stroke-opacity="1.000000" stroke-width="1.000000"/>
	<path id="Vector" d="M93.07 146.04L72.14 146.04L72.14 166.88L93.07 166.88L93.07 146.04Z" fill="#FFFFFF" fill-opacity="1.000000" fill-rule="nonzero"/>
	<path id="Vector" d="M93.07 146.04L93.07 166.88L72.14 166.88L72.14 146.04L93.07 146.04Z" stroke="#263238" stroke-opacity="1.000000" stroke-width="1.000000"/>
	<path id="Vector" d="M119.79 146.04L98.87 146.04L98.87 166.88L119.79 166.88L119.79 146.04Z" fill="#FFFFFF" fill-opacity="1.000000" fill-rule="nonzero"/>
	<path id="Vector" d="M119.79 146.04L119.79 166.88L98.87 166.88L98.87 146.04L119.79 146.04Z" stroke="#263238" stroke-opacity="1.000000" stroke-width="1.000000"/>
	<path id="Vector" d="M146.49 146.04L125.57 146.04L125.57 166.88L146.49 166.88L146.49 146.04Z" fill="#FFFFFF" fill-opacity="1.000000" fill-rule="nonzero"/>
	<path id="Vector" d="M146.49 146.04L146.49 166.88L125.57 166.88L125.57 146.04L146.49 146.04Z" stroke="#263238" stroke-opacity="1.000000" stroke-width="1.000000"/>
	<path id="Vector" d="M173.22 146.04L152.3 146.04L152.3 166.88L173.22 166.88L173.22 146.04Z" fill="#FFFFFF" fill-opacity="1.000000" fill-rule="nonzero"/>
	<path id="Vector" d="M173.22 146.04L173.22 166.88L152.3 166.88L152.3 146.04L173.22 146.04Z" stroke="#263238" stroke-opacity="1.000000" stroke-width="1.000000"/>
	<path id="Vector" d="M199.92 146.04L179 146.04L179 166.88L199.92 166.88L199.92 146.04Z" fill="#FFFFFF" fill-opacity="1.000000" fill-rule="nonzero"/>
	<path id="Vector" d="M199.92 146.04L199.92 166.88L179 166.88L179 146.04L199.92 146.04Z" stroke="#263238" stroke-opacity="1.000000" stroke-width="1.000000"/>
	<path id="Vector" d="M226.63 146.04L205.71 146.04L205.71 166.88L226.63 166.88L226.63 146.04Z" fill="#FFFFFF" fill-opacity="1.000000" fill-rule="nonzero"/>
	<path id="Vector" d="M226.63 146.04L226.63 166.88L205.71 166.88L205.71 146.04L226.63 146.04Z" stroke="#263238" stroke-opacity="1.000000" stroke-width="1.000000"/>
	<path id="Vector" d="M253.35 146.04L232.43 146.04L232.43 166.88L253.35 166.88L253.35 146.04Z" fill="#FFFFFF" fill-opacity="1.000000" fill-rule="nonzero"/>
	<path id="Vector" d="M253.35 146.04L253.35 166.88L232.43 166.88L232.43 146.04L253.35 146.04Z" stroke="#263238" stroke-opacity="1.000000" stroke-width="1.000000"/>
	<path id="Vector" d="M280.06 146.04L259.13 146.04L259.13 166.88L280.06 166.88L280.06 146.04Z" fill="#FFFFFF" fill-opacity="1.000000" fill-rule="nonzero"/>
	<path id="Vector" d="M280.06 146.04L280.06 166.88L259.13 166.88L259.13 146.04L280.06 146.04Z" stroke="#263238" stroke-opacity="1.000000" stroke-width="1.000000"/>
	<path id="Vector" d="M306.76 146.04L285.84 146.04L285.84 166.88L306.76 166.88L306.76 146.04Z" fill="#FFFFFF" fill-opacity="1.000000" fill-rule="nonzero"/>
	<path id="Vector" d="M306.76 146.04L306.76 166.88L285.84 166.88L285.84 146.04L306.76 146.04Z" stroke="#263238" stroke-opacity="1.000000" stroke-width="1.000000"/>
	<path id="Vector" d="M333.48 146.04L312.56 146.04L312.56 166.88L333.48 166.88L333.48 146.04Z" fill="#FFFFFF" fill-opacity="1.000000" fill-rule="nonzero"/>
	<path id="Vector" d="M333.48 146.04L333.48 166.88L312.56 166.88L312.56 146.04L333.48 146.04Z" stroke="#263238" stroke-opacity="1.000000" stroke-width="1.000000"/>
	<path id="Vector" d="M360.19 146.04L339.27 146.04L339.27 166.88L360.19 166.88L360.19 146.04Z" fill="#FFFFFF" fill-opacity="1.000000" fill-rule="nonzero"/>
	<path id="Vector" d="M360.19 146.04L360.19 166.88L339.27 166.88L339.27 146.04L360.19 146.04Z" stroke="#263238" stroke-opacity="1.000000" stroke-width="1.000000"/>
	<path id="Vector" d="M393.03 146.04L393.03 192.31L372.1 192.31L372.1 166.88L365.97 166.88L365.97 146.04L393.03 146.04Z" fill="#FFFFFF" fill-opacity="1.000000" fill-rule="nonzero"/>
	<path id="Vector" d="M393.03 192.31L372.1 192.31L372.1 166.88L365.97 166.88L365.97 146.04L393.03 146.04L393.03 192.31Z" stroke="#263238" stroke-opacity="1.000000" stroke-width="1.000000"/>
	<path id="Vector" d="M72.49 171.45L51.57 171.45L51.57 192.29L72.49 192.29L72.49 171.45Z" fill="#FFFFFF" fill-opacity="1.000000" fill-rule="nonzero"/>
	<path id="Vector" d="M72.49 171.45L72.49 192.29L51.57 192.29L51.57 171.45L72.49 171.45Z" stroke="#263238" stroke-opacity="1.000000" stroke-width="1.000000"/>
	<path id="Vector" d="M99.2 171.45L78.28 171.45L78.28 192.29L99.2 192.29L99.2 171.45Z" fill="#FFFFFF" fill-opacity="1.000000" fill-rule="nonzero"/>
	<path id="Vector" d="M99.2 171.45L99.2 192.29L78.28 192.29L78.28 171.45L99.2 171.45Z" stroke="#263238" stroke-opacity="1.000000" stroke-width="1.000000"/>
	<path id="Vector" d="M125.9 171.45L104.98 171.45L104.98 192.29L125.9 192.29L125.9 171.45Z" fill="#FFFFFF" fill-opacity="1.000000" fill-rule="nonzero"/>
	<path id="Vector" d="M125.9 171.45L125.9 192.29L104.98 192.29L104.98 171.45L125.9 171.45Z" stroke="#263238" stroke-opacity="1.000000" stroke-width="1.000000"/>
	<path id="Vector" d="M152.63 171.45L131.71 171.45L131.71 192.29L152.63 192.29L152.63 171.45Z" fill="#FFFFFF" fill-opacity="1.000000" fill-rule="nonzero"/>
	<path id="Vector" d="M152.63 171.45L152.63 192.29L131.71 192.29L131.71 171.45L152.63 171.45Z" stroke="#263238" stroke-opacity="1.000000" stroke-width="1.000000"/>
	<path id="Vector" d="M179.33 171.45L158.41 171.45L158.41 192.29L179.33 192.29L179.33 171.45Z" fill="#FFFFFF" fill-opacity="1.000000" fill-rule="nonzero"/>
	<path id="Vector" d="M179.33 171.45L179.33 192.29L158.41 192.29L158.41 171.45L179.33 171.45Z" stroke="#263238" stroke-opacity="1.000000" stroke-width="1.000000"/>
	<path id="Vector" d="M206.05 171.45L185.13 171.45L185.13 192.29L206.05 192.29L206.05 171.45Z" fill="#FFFFFF" fill-opacity="1.000000" fill-rule="nonzero"/>
	<path id="Vector" d="M206.05 171.45L206.05 192.29L185.13 192.29L185.13 171.45L206.05 171.45Z" stroke="#263238" stroke-opacity="1.000000" stroke-width="1.000000"/>
	<path id="Vector" d="M232.76 171.45L211.84 171.45L211.84 192.29L232.76 192.29L232.76 171.45Z" fill="#FFFFFF" fill-opacity="1.000000" fill-rule="nonzero"/>
	<path id="Vector" d="M232.76 171.45L232.76 192.29L211.84 192.29L211.84 171.45L232.76 171.45Z" stroke="#263238" stroke-opacity="1.000000" stroke-width="1.000000"/>
	<path id="Vector" d="M259.47 171.45L238.54 171.45L238.54 192.29L259.47 192.29L259.47 171.45Z" fill="#FFFFFF" fill-opacity="1.000000" fill-rule="nonzero"/>
	<path id="Vector" d="M259.47 171.45L259.47 192.29L238.54 192.29L238.54 171.45L259.47 171.45Z" stroke="#263238" stroke-opacity="1.000000" stroke-width="1.000000"/>
	<path id="Vector" d="M286.19 171.45L265.27 171.45L265.27 192.29L286.19 192.29L286.19 171.45Z" fill="#FFFFFF" fill-opacity="1.000000" fill-rule="nonzero"/>
	<path id="Vector" d="M286.19 171.45L286.19 192.29L265.27 192.29L265.27 171.45L286.19 171.45Z" stroke="#263238" stroke-opacity="1.000000" stroke-width="1.000000"/>
	<path id="Vector" d="M312.89 171.45L291.97 171.45L291.97 192.29L312.89 192.29L312.89 171.45Z" fill="#FFFFFF" fill-opacity="1.000000" fill-rule="nonzero"/>
	<path id="Vector" d="M312.89 171.45L312.89 192.29L291.97 192.29L291.97 171.45L312.89 171.45Z" stroke="#263238" stroke-opacity="1.000000" stroke-width="1.000000"/>
	<path id="Vector" d="M339.6 171.45L318.68 171.45L318.68 192.29L339.6 192.29L339.6 171.45Z" fill="#FFFFFF" fill-opacity="1.000000" fill-rule="nonzero"/>
	<path id="Vector" d="M339.6 171.45L339.6 192.29L318.68 192.29L318.68 171.45L339.6 171.45Z" stroke="#263238" stroke-opacity="1.000000" stroke-width="1.000000"/>
	<path id="Vector" d="M366.32 171.45L345.4 171.45L345.4 192.29L366.32 192.29L366.32 171.45Z" fill="#FFFFFF" fill-opacity="1.000000" fill-rule="nonzero"/>
	<path id="Vector" d="M366.32 171.45L366.32 192.29L345.4 192.29L345.4 171.45L366.32 171.45Z" stroke="#263238" stroke-opacity="1.000000" stroke-width="1.000000"/>
	<path id="Vector" d="M61.14 196.86L40.21 196.86L40.21 217.7L61.14 217.7L61.14 196.86Z" fill="#FFFFFF" fill-opacity="1.000000" fill-rule="nonzero"/>
	<path id="Vector" d="M61.14 196.86L61.14 217.7L40.21 217.7L40.21 196.86L61.14 196.86Z" stroke="#263238" stroke-opacity="1.000000" stroke-width="1.000000"/>
	<path id="Vector" d="M87.84 196.86L66.92 196.86L66.92 217.7L87.84 217.7L87.84 196.86Z" fill="#FFFFFF" fill-opacity="1.000000" fill-rule="nonzero"/>
	<path id="Vector" d="M87.84 196.86L87.84 217.7L66.92 217.7L66.92 196.86L87.84 196.86Z" stroke="#263238" stroke-opacity="1.000000" stroke-width="1.000000"/>
	<path id="Vector" d="M114.56 196.86L93.64 196.86L93.64 217.7L114.56 217.7L114.56 196.86Z" fill="#FFFFFF" fill-opacity="1.000000" fill-rule="nonzero"/>
	<path id="Vector" d="M114.56 196.86L114.56 217.7L93.64 217.7L93.64 196.86L114.56 196.86Z" stroke="#263238" stroke-opacity="1.000000" stroke-width="1.000000"/>
	<path id="Vector" d="M141.27 196.86L120.35 196.86L120.35 217.7L141.27 217.7L141.27 196.86Z" fill="#FFFFFF" fill-opacity="1.000000" fill-rule="nonzero"/>
	<path id="Vector" d="M141.27 196.86L141.27 217.7L120.35 217.7L120.35 196.86L141.27 196.86Z" stroke="#263238" stroke-opacity="1.000000" stroke-width="1.000000"/>
	<path id="Vector" d="M167.99 196.86L147.07 196.86L147.07 217.7L167.99 217.7L167.99 196.86Z" fill="#FFFFFF" fill-opacity="1.000000" fill-rule="nonzero"/>
	<path id="Vector" d="M167.99 196.86L167.99 217.7L147.07 217.7L147.07 196.86L167.99 196.86Z" stroke="#263238" stroke-opacity="1.000000" stroke-width="1.000000"/>
	<path id="Vector" d="M194.7 196.86L173.77 196.86L173.77 217.7L194.7 217.7L194.7 196.86Z" fill="#FFFFFF" fill-opacity="1.000000" fill-rule="nonzero"/>
	<path id="Vector" d="M194.7 196.86L194.7 217.7L173.77 217.7L173.77 196.86L194.7 196.86Z" stroke="#263238" stroke-opacity="1.000000" stroke-width="1.000000"/>
	<path id="Vector" d="M221.4 196.86L200.48 196.86L200.48 217.7L221.4 217.7L221.4 196.86Z" fill="#FFFFFF" fill-opacity="1.000000" fill-rule="nonzero"/>
	<path id="Vector" d="M221.4 196.86L221.4 217.7L200.48 217.7L200.48 196.86L221.4 196.86Z" stroke="#263238" stroke-opacity="1.000000" stroke-width="1.000000"/>
	<path id="Vector" d="M248.12 196.86L227.2 196.86L227.2 217.7L248.12 217.7L248.12 196.86Z" fill="#FFFFFF" fill-opacity="1.000000" fill-rule="nonzero"/>
	<path id="Vector" d="M248.12 196.86L248.12 217.7L227.2 217.7L227.2 196.86L248.12 196.86Z" stroke="#263238" stroke-opacity="1.000000" stroke-width="1.000000"/>
	<path id="Vector" d="M274.83 196.86L253.91 196.86L253.91 217.7L274.83 217.7L274.83 196.86Z" fill="#FFFFFF" fill-opacity="1.000000" fill-rule="nonzero"/>
	<path id="Vector" d="M274.83 196.86L274.83 217.7L253.91 217.7L253.91 196.86L274.83 196.86Z" stroke="#263238" stroke-opacity="1.000000" stroke-width="1.000000"/>
	<path id="Vector" d="M301.53 196.86L280.61 196.86L280.61 217.7L301.53 217.7L301.53 196.86Z" fill="#FFFFFF" fill-opacity="1.000000" fill-rule="nonzero"/>
	<path id="Vector" d="M301.53 196.86L301.53 217.7L280.61 217.7L280.61 196.86L301.53 196.86Z" stroke="#263238" stroke-opacity="1.000000" stroke-width="1.000000"/>
	<path id="Vector" d="M328.26 196.86L307.34 196.86L307.34 217.7L328.26 217.7L328.26 196.86Z" fill="#FFFFFF" fill-opacity="1.000000" fill-rule="nonzero"/>
	<path id="Vector" d="M328.26 196.86L328.26 217.7L307.34 217.7L307.34 196.86L328.26 196.86Z" stroke="#263238" stroke-opacity="1.000000" stroke-width="1.000000"/>
	<path id="Vector" d="M72.49 96.47L51.57 96.47L51.57 117.32L72.49 117.32L72.49 96.47Z" fill="#FFFFFF" fill-opacity="1.000000" fill-rule="nonzero"/>
	<path id="Vector" d="M72.49 96.47L72.49 117.32L51.57 117.32L51.57 96.47L72.49 96.47Z" stroke="#263238" stroke-opacity="1.000000" stroke-width="1.000000"/>
	<path id="Vector" d="M99.2 96.47L78.28 96.47L78.28 117.32L99.2 117.32L99.2 96.47Z" fill="#FFFFFF" fill-opacity="1.000000" fill-rule="nonzero"/>
	<path id="Vector" d="M99.2 96.47L99.2 117.32L78.28 117.32L78.28 96.47L99.2 96.47Z" stroke="#263238" stroke-opacity="1.000000" stroke-width="1.000000"/>
	<path id="Vector" d="M125.9 96.47L104.98 96.47L104.98 117.32L125.9 117.32L125.9 96.47Z" fill="#FFFFFF" fill-opacity="1.000000" fill-rule="nonzero"/>
	<path id="Vector" d="M125.9 96.47L125.9 117.32L104.98 117.32L104.98 96.47L125.9 96.47Z" stroke="#263238" stroke-opacity="1.000000" stroke-width="1.000000"/>
	<path id="Vector" d="M152.63 96.47L131.71 96.47L131.71 117.32L152.63 117.32L152.63 96.47Z" fill="#FFFFFF" fill-opacity="1.000000" fill-rule="nonzero"/>
	<path id="Vector" d="M152.63 96.47L152.63 117.32L131.71 117.32L131.71 96.47L152.63 96.47Z" stroke="#263238" stroke-opacity="1.000000" stroke-width="1.000000"/>
	<path id="Vector" d="M179.33 96.47L158.41 96.47L158.41 117.32L179.33 117.32L179.33 96.47Z" fill="#FFFFFF" fill-opacity="1.000000" fill-rule="nonzero"/>
	<path id="Vector" d="M179.33 96.47L179.33 117.32L158.41 117.32L158.41 96.47L179.33 96.47Z" stroke="#263238" stroke-opacity="1.000000" stroke-width="1.000000"/>
	<path id="Vector" d="M206.05 96.47L185.13 96.47L185.13 117.32L206.05 117.32L206.05 96.47Z" fill="#FFFFFF" fill-opacity="1.000000" fill-rule="nonzero"/>
	<path id="Vector" d="M206.05 96.47L206.05 117.32L185.13 117.32L185.13 96.47L206.05 96.47Z" stroke="#263238" stroke-opacity="1.000000" stroke-width="1.000000"/>
	<path id="Vector" d="M232.76 96.47L211.84 96.47L211.84 117.32L232.76 117.32L232.76 96.47Z" fill="#FFFFFF" fill-opacity="1.000000" fill-rule="nonzero"/>
	<path id="Vector" d="M232.76 96.47L232.76 117.32L211.84 117.32L211.84 96.47L232.76 96.47Z" stroke="#263238" stroke-opacity="1.000000" stroke-width="1.000000"/>
	<path id="Vector" d="M259.47 96.47L238.54 96.47L238.54 117.32L259.47 117.32L259.47 96.47Z" fill="#FFFFFF" fill-opacity="1.000000" fill-rule="nonzero"/>
	<path id="Vector" d="M259.47 96.47L259.47 117.32L238.54 117.32L238.54 96.47L259.47 96.47Z" stroke="#263238" stroke-opacity="1.000000" stroke-width="1.000000"/>
	<path id="Vector" d="M286.19 96.47L265.27 96.47L265.27 117.32L286.19 117.32L286.19 96.47Z" fill="#FFFFFF" fill-opacity="1.000000" fill-rule="nonzero"/>
	<path id="Vector" d="M286.19 96.47L286.19 117.32L265.27 117.32L265.27 96.47L286.19 96.47Z" stroke="#263238" stroke-opacity="1.000000" stroke-width="1.000000"/>
	<path id="Vector" d="M312.89 96.47L291.97 96.47L291.97 117.32L312.89 117.32L312.89 96.47Z" fill="#FFFFFF" fill-opacity="1.000000" fill-rule="nonzero"/>
	<path id="Vector" d="M312.89 96.47L312.89 117.32L291.97 117.32L291.97 96.47L312.89 96.47Z" stroke="#263238" stroke-opacity="1.000000" stroke-width="1.000000"/>
	<path id="Vector" d="M339.6 96.47L318.68 96.47L318.68 117.32L339.6 117.32L339.6 96.47Z" fill="#FFFFFF" fill-opacity="1.000000" fill-rule="nonzero"/>
	<path id="Vector" d="M339.6 96.47L339.6 117.32L318.68 117.32L318.68 96.47L339.6 96.47Z" stroke="#263238" stroke-opacity="1.000000" stroke-width="1.000000"/>
	<path id="Vector" d="M366.32 96.47L345.4 96.47L345.4 117.32L366.32 117.32L366.32 96.47Z" fill="#FFFFFF" fill-opacity="1.000000" fill-rule="nonzero"/>
	<path id="Vector" d="M366.32 96.47L366.32 117.32L345.4 117.32L345.4 96.47L366.32 96.47Z" stroke="#263238" stroke-opacity="1.000000" stroke-width="1.000000"/>
	<path id="Vector" d="M393.03 96.47L372.1 96.47L372.1 117.32L393.03 117.32L393.03 96.47Z" fill="#FFFFFF" fill-opacity="1.000000" fill-rule="nonzero"/>
	<path id="Vector" d="M393.03 96.47L393.03 117.32L372.1 117.32L372.1 96.47L393.03 96.47Z" stroke="#263238" stroke-opacity="1.000000" stroke-width="1.000000"/>
	<path id="Vector" d="M34.24 196.86L8.89 196.86L8.89 217.7L34.24 217.7L34.24 196.86Z" fill="#FFFFFF" fill-opacity="1.000000" fill-rule="nonzero"/>
	<path id="Vector" d="M34.24 196.86L34.24 217.7L8.89 217.7L8.89 196.86L34.24 196.86Z" stroke="#263238" stroke-opacity="1.000000" stroke-width="1.000000"/>
	<path id="Vector" d="M0.5 86.09L8.89 83.3L396.88 83.3L402.4 86.06L0.5 86.09Z" fill="#263238" fill-opacity="1.000000" fill-rule="nonzero"/>
	<path id="Vector" d="M352.37 285.85L352.58 209.13C353.41 206.04 354.09 194.65 355.87 186.72C358.9 173.43 346.98 157.39 346.15 156.87C342.8 154.79 335.7 154.82 335.7 154.82C335.7 154.82 328.73 146.91 322.51 144.41C318.23 142.9 313.68 142.33 309.17 142.76C304.38 138.82 299.04 135.6 293.31 133.2C291.07 132.35 288.64 132.14 286.29 132.58C283.93 133.02 281.75 134.1 279.97 135.7L272.13 147.84C270.98 149.57 270.47 151.63 270.66 153.69C270.85 155.75 271.75 157.68 273.19 159.16C276.92 162.8 281.69 161.1 284.1 161.1C287.43 161.1 288.68 157.36 288.68 157.36C288.68 157.36 289.5 176.88 288.68 179.38C287.82 181.86 281.59 187.68 281.59 187.68L260.68 160.2C253.51 150.5 247.23 140.17 241.92 129.34C241.32 128.02 240.53 126.8 239.57 125.7C235.91 121.59 228.09 120.37 226.05 128.01C225.55 130.45 225.67 132.98 226.38 135.37C235.09 161.02 246.21 180.4 256.33 200.61C262.34 212.6 260.11 212.46 263.11 217.87C262.76 218.12 262.93 218.57 262.55 218.79C261.09 224.63 260.06 230.47 258.58 236.31C257.35 228.98 255.1 221.87 251.9 215.17C252.75 211.1 253.06 206.95 252.83 202.81C252.57 198.62 250.69 194.7 247.6 191.86C245.87 190.46 243.75 189.64 241.52 189.5C239.93 189.39 238.36 189.89 237.12 190.89C235.88 191.89 235.06 193.32 234.83 194.9C234.49 198.07 233.9 201.21 233.09 204.3C231.76 208.33 230.15 212.27 228.28 216.09C228.28 223.84 233.09 222.58 236.59 253.71C239.31 278.01 270.67 294 287.74 311.51L307.96 371.01C333.39 359.08 343.87 353.12 365.57 336.73L352.37 285.85Z" fill="#FFFFFF" fill-opacity="1.000000" fill-rule="nonzero"/>
	<path id="Vector" d="M248.04 243.86C248.25 243.47 248.42 243.09 248.59 242.69C248.41 242.82 248.26 243 248.16 243.2C248.06 243.41 248.02 243.63 248.04 243.86Z" fill="#92E3A9" fill-opacity="1.000000" fill-rule="nonzero"/>
	<path id="Vector" d="M298.26 136.49C295.87 134.63 293.03 133.43 290.02 133.02L298.26 136.49Z" fill="#92E3A9" fill-opacity="1.000000" fill-rule="nonzero"/>
	<path id="Vector" d="M288.97 144.62L289.08 145.48C289.14 145.19 289.1 144.89 288.97 144.62Z" fill="#92E3A9" fill-opacity="1.000000" fill-rule="nonzero"/>
	<g opacity="0.500000">
		<g opacity="0.500000">
			<path id="Vector" d="M248.04 243.86C248.25 243.47 248.42 243.09 248.59 242.69C248.41 242.82 248.26 243 248.16 243.2C248.06 243.41 248.02 243.63 248.04 243.86Z" fill="#FFFFFF" fill-opacity="1.000000" fill-rule="nonzero"/>
		</g>
		<g opacity="0.500000">
			<path id="Vector" d="M298.26 136.49C295.87 134.63 293.03 133.43 290.02 133.02L298.26 136.49Z" fill="#FFFFFF" fill-opacity="1.000000" fill-rule="nonzero"/>
		</g>
		<g opacity="0.500000">
			<path id="Vector" d="M288.97 144.62L289.08 145.48C289.14 145.19 289.1 144.89 288.97 144.62Z" fill="#FFFFFF" fill-opacity="1.000000" fill-rule="nonzero"/>
		</g>
		<g opacity="0.500000">
			<path id="Vector" d="M298.57 219.89C297.79 217.94 293.99 212.35 291.78 216.22L298.57 219.89Z" fill="#FFFFFF" fill-opacity="1.000000" fill-rule="nonzero"/>
		</g>
	</g>
	<path id="Vector" d="M233.81 210.55C231.78 212.14 230.05 214.07 228.7 216.26L233.81 210.55Z" fill="#FFFFFF" fill-opacity="1.000000" fill-rule="nonzero"/>
	<path id="Vector" d="M307.96 371.01L287.91 311.46C270.84 293.94 239.48 277.92 236.77 253.66C233.28 222.53 228.46 223.79 228.46 216.03C230.33 212.22 231.93 208.28 233.27 204.25C234.08 201.16 234.66 198.02 235.01 194.84C235.24 193.27 236.05 191.84 237.29 190.84C238.53 189.84 240.1 189.34 241.7 189.45C243.92 189.59 246.04 190.41 247.78 191.81C250.87 194.65 252.74 198.57 253 202.76C253.23 206.9 252.92 211.05 252.08 215.11C255.28 221.82 257.52 228.93 258.75 236.25C260.23 230.42 261.26 224.57 262.72 218.74C263.1 218.52 262.93 218.06 263.28 217.82C260.28 212.41 262.51 212.62 256.5 200.55C246.38 180.35 235.29 160.97 226.56 135.31C225.84 132.92 225.73 130.4 226.23 127.95C228.27 120.32 236.09 121.53 239.75 125.65C240.7 126.74 241.49 127.97 242.1 129.29C247.4 140.12 253.68 150.45 260.86 160.15L281.76 187.62C281.76 187.62 288 181.81 288.85 179.33C289.67 176.83 288.85 157.3 288.85 157.3C288.85 157.3 287.6 161.05 284.27 161.05C281.87 161.05 277.09 162.79 273.37 159.11C271.91 157.65 270.99 155.74 270.76 153.69C270.54 151.64 271.02 149.58 272.13 147.84L279.92 135.7C281.7 134.1 283.88 133.02 286.24 132.58C288.59 132.14 291.02 132.35 293.26 133.2C298.98 135.6 304.32 138.82 309.11 142.76C313.63 142.33 318.18 142.9 322.46 144.41C328.73 146.92 335.64 154.82 335.64 154.82C335.64 154.82 342.73 154.82 346.1 156.87C346.93 157.39 358.85 173.43 355.82 186.72C354.07 194.65 353.36 206.04 352.52 209.13L352.31 285.85L366.31 336.73" stroke="#263238" stroke-opacity="1.000000" stroke-width="1.000000"/>
	<path id="Vector" d="M311.08 145.47C314.15 156.79 315.74 168.45 315.82 180.18C315.72 182.14 315.93 184.11 316.45 186.01C316.72 186.95 317.23 187.81 317.92 188.51C318.62 189.2 319.49 189.7 320.44 189.97" stroke="#263238" stroke-opacity="1.000000" stroke-width="1.000000"/>
	<path id="Vector" d="M335.71 156.87C340.94 167.73 335.59 192 335.98 193.71C336.14 194.58 336.49 195.4 337 196.12C337.5 196.83 338.16 197.44 338.92 197.88" stroke="#263238" stroke-opacity="1.000000" stroke-width="1.000000"/>
	<path id="Vector" d="M290.8 143.97C290.19 147.45 289.69 151.44 289.06 154.89C287.03 153.15 285.37 151.03 284.18 148.64C282.98 146.26 282.27 143.67 282.09 141.01" stroke="#263238" stroke-opacity="1.000000" stroke-width="1.000000"/>
	<path id="Vector" d="M253.66 236.58L257.43 236.58" stroke="#263238" stroke-opacity="1.000000" stroke-width="1.000000"/>
	<path id="Vector" d="M258.38 239.59C257.78 242.48 257.78 245.47 258.38 248.37" stroke="#263238" stroke-opacity="1.000000" stroke-width="1.000000"/>
	<path id="Vector" d="M280.4 207.15L284.57 207.15" stroke="#263238" stroke-opacity="1.000000" stroke-width="1.000000"/>
	<path id="Vector" d="M288.42 173.95L292.57 173.95" stroke="#263238" stroke-opacity="1.000000" stroke-width="1.000000"/>
	<path id="Vector" d="M345.47 207.15L346.72 207.15" stroke="#263238" stroke-opacity="1.000000" stroke-width="1.000000"/>
	<path id="Vector" d="M336.58 194.7C337.75 190.82 338.97 186.93 340.26 183.04" stroke="#263238" stroke-opacity="1.000000" stroke-width="1.000000"/>
	<path id="Vector" d="M348.78 173.96C349.88 173.39 351.17 173.27 352.36 173.64C353.54 174.01 354.54 174.83 355.12 175.93" stroke="#263238" stroke-opacity="1.000000" stroke-width="1.000000"/>
	<path id="Vector" d="M323.82 154.04C325.26 153.64 326.79 153.6 328.25 153.93C329.71 154.27 331.07 154.96 332.19 155.95" stroke="#263238" stroke-opacity="1.000000" stroke-width="1.000000"/>
	<path id="Vector" d="M246.22 165.62C247.58 164.14 249.26 163 251.14 162.3C253.01 161.59 255.03 161.34 257.03 161.56" stroke="#263238" stroke-opacity="1.000000" stroke-width="1.000000"/>
	<path id="Vector" d="M230.49 132.88C231.74 131.99 233.15 131.35 234.64 131C236.14 130.64 237.69 130.59 239.2 130.84" stroke="#263238" stroke-opacity="1.000000" stroke-width="1.000000"/>
	<path id="Vector" d="M233.81 210.55C231.78 212.14 230.05 214.07 228.7 216.26" stroke="#263238" stroke-opacity="1.000000" stroke-width="1.000000"/>
	<path id="Vector" d="M235.41 202.65C238.16 200.71 242.55 205.08 245.08 202.84C245.52 202.34 245.84 201.73 245.99 201.08C246.13 200.42 246.12 199.74 245.93 199.1C245.56 197.8 245.39 196.46 245.42 195.12" stroke="#263238" stroke-opacity="1.000000" stroke-width="1.000000"/>
	<path id="Vector" d="M313.08 190.63C316.44 197.56 317.12 205.48 315 212.88" stroke="#263238" stroke-opacity="1.000000" stroke-width="1.000000"/>
	<path id="Vector" d="M333.33 201.33C333.87 204.62 333.25 207.98 331.58 210.86" stroke="#263238" stroke-opacity="1.000000" stroke-width="1.000000"/>
	<path id="Vector" d="M158.24 200.36C157.5 196.89 152.6 197.43 152.6 197.43C136.14 198.38 133.93 224.08 133.93 224.08L128.02 241.7L126.28 215.22L126.45 181.08C126.45 181.08 131.43 148.41 129.22 143.29C128.72 141.88 127.8 140.65 126.58 139.77C125.37 138.88 123.91 138.38 122.41 138.33C112.83 135.94 112.27 149.7 112.27 149.7L104.19 177.78L100.77 208.07L98.02 206.59C98.02 206.59 96.72 174.46 97.27 173.93C97.83 173.39 101.14 151.71 101.14 151.71C101.14 151.71 102.88 147.69 105.2 142.55C105.85 141.11 106.19 139.54 106.19 137.96C106.19 136.37 105.85 134.81 105.2 133.37C101.31 125.47 93.23 129.15 91.56 133.37C89.6 137.65 87.39 141.82 84.94 145.85L75.71 170.99C76.06 176.69 72.78 204.75 72.78 204.75L69.45 203.26L64.11 186.77L68.18 169.88C68.18 169.88 77.08 160.16 75.53 154.44C73.98 148.71 66.51 150.41 66.51 150.41L51.42 168.37L46.98 168.37L36.53 181.6C31.78 195.78 30.94 210.97 34.07 225.59L36.48 236.75L36.48 308.9C36.48 308.9 29.32 320.46 29.32 321.55C29.32 322.06 22.54 334.3 18.41 345.67C36.4 357.39 55.82 367.28 79.01 376.97C85.62 358.45 96.87 333.15 101.14 328.53C109.61 319.35 126.19 301.73 126.19 301.73C126.19 301.73 145.02 271.59 147.23 261.56C148.98 253.33 153.47 238.4 155 233.28C155.36 232.12 155.5 230.9 155.42 229.69C155.3 226.98 155.04 221.72 155.04 217.09C155.04 210.39 158.96 203.78 158.24 200.36Z" fill="#FFFFFF" fill-opacity="1.000000" fill-rule="nonzero"/>
	<path id="Vector" d="M18.41 345.67C23.65 333.75 31 317.11 31 316.61C31 315.52 38.16 303.96 38.16 303.96L38.16 231.83L35.75 220.74C32.62 206.15 33.45 191 38.16 176.85L48.61 163.62L53.05 163.62L68.14 145.66C68.14 145.66 75.7 143.92 77.16 149.68C78.62 155.45 69.81 165.1 69.81 165.1L65.73 181.98L71.08 198.47L74.41 199.96C74.41 199.96 77.68 171.9 77.34 166.21L86.57 141.06C89.01 137.03 91.22 132.86 93.19 128.58C94.93 124.36 102.94 120.68 106.83 128.58C107.48 130.02 107.82 131.59 107.82 133.17C107.82 134.75 107.48 136.32 106.83 137.76C104.6 142.97 102.77 146.92 102.77 146.92C102.77 146.92 99.46 168.58 98.9 169.14C98.34 169.69 99.65 201.8 99.65 201.8L102.4 203.28L105.73 172.99L113.81 144.91C113.81 144.91 114.37 131.15 123.95 133.54C125.46 133.6 126.91 134.1 128.12 134.98C129.34 135.87 130.26 137.09 130.76 138.51C132.98 143.63 127.99 176.29 127.99 176.29L127.82 210.43L129.56 236.91L135.47 219.3C135.47 219.3 137.68 193.59 154.14 192.64C154.14 192.64 159.04 192.14 159.79 195.57C160.53 199.01 156.58 205.6 156.58 212.22C156.58 216.85 156.84 222.11 156.96 224.82C157.04 226.03 156.9 227.25 156.55 228.41C155.01 233.53 150.61 248.45 148.78 256.68C146.56 266.71 127.73 296.86 127.73 296.86C127.73 296.86 111.15 314.48 102.68 323.66C98.41 328.27 85.62 358.45 79.01 376.97" stroke="#263238" stroke-opacity="1.000000" stroke-width="1.000000"/>
	<path id="Vector" d="M74.16 202.62C74.63 204.34 74.64 206.16 74.21 207.89C73.77 209.62 72.9 211.21 71.67 212.51L74.16 202.62Z" fill="#FFFFFF" fill-opacity="1.000000" fill-rule="nonzero"/>
	<path id="Vector" d="M74.16 202.62C74.63 204.34 74.64 206.16 74.21 207.89C73.77 209.62 72.9 211.21 71.67 212.51" stroke="#263238" stroke-opacity="1.000000" stroke-width="1.000000"/>
	<path id="Vector" d="M46.07 226.88C48.45 223.18 50.79 218.12 50.14 213.78C48.89 205.26 44.92 195.45 46.75 187.02C47.86 181.64 48.99 176.24 50.11 170.86L46.07 226.88Z" fill="#FFFFFF" fill-opacity="1.000000" fill-rule="nonzero"/>
	<path id="Vector" d="M46.07 226.88C48.45 223.18 50.79 218.12 50.14 213.78C48.89 205.26 44.92 195.45 46.75 187.02C47.86 181.64 48.99 176.24 50.11 170.86" stroke="#263238" stroke-opacity="1.000000" stroke-width="1.000000"/>
	<path id="Vector" d="M115.52 146.39C118.38 145.64 121.38 145.64 124.23 146.39C124.23 145.59 124.23 144.79 124.23 143.97" stroke="#263238" stroke-opacity="1.000000" stroke-width="1.000000"/>
	<path id="Vector" d="M92.7 135.54C93.54 136.12 94.52 136.45 95.54 136.51C96.56 136.57 97.57 136.34 98.47 135.86C99.37 135.39 100.12 134.67 100.64 133.8C101.16 132.92 101.42 131.92 101.41 130.91" stroke="#263238" stroke-opacity="1.000000" stroke-width="1.000000"/>
	<path id="Vector" d="M155.6 195.8C153.2 196.42 151.08 197.85 149.62 199.86C148.16 201.86 147.45 204.31 147.61 206.78L151.88 208.05" stroke="#263238" stroke-opacity="1.000000" stroke-width="1.000000"/>
	<path id="Vector" d="M99.55 197.92C99.74 200.83 99.37 207.79 99.55 210.69L99.55 197.92Z" fill="#FFFFFF" fill-opacity="1.000000" fill-rule="nonzero"/>
	<path id="Vector" d="M99.55 197.92C99.74 200.83 99.37 207.79 99.55 210.69" stroke="#263238" stroke-opacity="1.000000" stroke-width="1.000000"/>
	<path id="Vector" d="M102.75 201.94C102.4 206.72 102.05 211.49 101.69 216.26C101.69 215.65 101.69 215.05 101.69 214.44L102.75 201.94Z" fill="#FFFFFF" fill-opacity="1.000000" fill-rule="nonzero"/>
	<path id="Vector" d="M102.75 201.94C102.4 206.72 102.05 211.49 101.69 216.26C101.69 215.65 101.69 215.05 101.69 214.44" stroke="#263238" stroke-opacity="1.000000" stroke-width="1.000000"/>
	<path id="Vector" d="M129.28 242.17C130.55 247.45 129.97 252.99 127.65 257.9L129.28 242.17Z" fill="#FFFFFF" fill-opacity="1.000000" fill-rule="nonzero"/>
	<path id="Vector" d="M129.28 242.17C130.55 247.45 129.97 252.99 127.65 257.9" stroke="#263238" stroke-opacity="1.000000" stroke-width="1.000000"/>
	<path id="Vector" d="M85.17 217.16C81.38 221.31 81.93 231.26 84.62 236.74" stroke="#263238" stroke-opacity="1.000000" stroke-width="1.000000"/>
	<path id="Vector" d="M113.24 224C113.26 228.66 111.61 233.18 108.59 236.74" stroke="#263238" stroke-opacity="1.000000" stroke-width="1.000000"/>
	<path id="Vector" d="M57.51 219.14C56.88 223.37 57.8 227.68 60.11 231.29" stroke="#263238" stroke-opacity="1.000000" stroke-width="1.000000"/>
	<path id="Vector" d="M41.34 232.11C41.18 235.41 42.12 238.67 44.03 241.37" stroke="#263238" stroke-opacity="1.000000" stroke-width="1.000000"/>
	<path id="Vector" d="M63.5 152.08C64.5 151.62 65.62 151.48 66.7 151.65C67.79 151.83 68.8 152.32 69.6 153.07L71.8 150.22" stroke="#263238" stroke-opacity="1.000000" stroke-width="1.000000"/>
	<path id="Vector" d="M81.38 164.84C82.85 163.96 84.58 163.63 86.27 163.91C87.96 164.2 89.49 165.07 90.59 166.38" stroke="#263238" stroke-opacity="1.000000" stroke-width="1.000000"/>
	<path id="Vector" d="M109.28 173.51C110.85 172.82 112.55 172.48 114.26 172.51C115.98 172.55 117.66 172.96 119.2 173.72" stroke="#263238" stroke-opacity="1.000000" stroke-width="1.000000"/>
	<path id="Vector" d="M47.18 188.07C48.11 186.53 49.46 185.28 51.08 184.48C52.7 183.68 54.51 183.36 56.31 183.56" stroke="#263238" stroke-opacity="1.000000" stroke-width="1.000000"/>
	<path id="Vector" d="M35.49 316.13C35.55 315 35.99 313.93 36.74 313.09C37.49 312.25 38.51 311.7 39.62 311.51" stroke="#263238" stroke-opacity="1.000000" stroke-width="1.000000"/>
	<path id="Vector" d="M46.17 26.53L9.43 26.53C7.12 26.53 4.91 27.44 3.27 29.07C1.64 30.7 0.72 32.9 0.72 35.21L0.72 53.03C0.72 55.33 1.64 57.54 3.27 59.17C4.91 60.79 7.12 61.71 9.43 61.71L19.03 61.71L26.31 78.14L36.57 61.71L46.17 61.71C48.48 61.71 50.7 60.79 52.33 59.17C53.96 57.54 54.88 55.33 54.88 53.03L54.88 35.14C54.86 32.85 53.94 30.66 52.31 29.05C50.67 27.43 48.47 26.53 46.17 26.53Z" fill="#FFFFFF" fill-opacity="1.000000" fill-rule="nonzero"/>
	<path id="Vector" d="M9.43 26.53C7.12 26.53 4.91 27.44 3.27 29.07C1.64 30.7 0.72 32.9 0.72 35.21L0.72 53.03C0.72 55.33 1.64 57.54 3.27 59.17C4.91 60.79 7.12 61.71 9.43 61.71L19.03 61.71L26.31 78.14L36.57 61.71L46.17 61.71C48.48 61.71 50.7 60.79 52.33 59.17C53.96 57.54 54.88 55.33 54.88 53.03L54.88 35.14C54.86 32.85 53.94 30.66 52.31 29.05C50.67 27.43 48.47 26.53 46.17 26.53L9.43 26.53Z" stroke="#263238" stroke-opacity="1.000000" stroke-width="1.000000" stroke-linejoin="round"/>
	<path id="Vector" d="M22.69 36.77C22.69 36.31 22.87 35.87 23.2 35.54C23.53 35.22 23.97 35.03 24.43 35.03C24.87 35.03 25.3 35.2 25.62 35.5C25.94 35.8 26.14 36.21 26.17 36.65C26.17 37.11 25.99 37.55 25.66 37.87C25.34 38.2 24.89 38.38 24.43 38.38C23.99 38.38 23.56 38.22 23.24 37.92C22.92 37.62 22.72 37.21 22.69 36.77ZM23.07 40.4L25.88 40.4L25.88 52.3L23.02 52.3L23.07 40.4Z" fill="#263238" fill-opacity="1.000000" fill-rule="nonzero"/>
	<path id="Vector" d="M32.62 39.74L32.62 40.45L35.91 40.45L35.91 42.69L32.72 42.69L32.72 52.27L29.99 52.27L29.99 42.69L27.95 42.69L27.95 40.45L29.99 40.45L29.99 39.68C29.94 39.12 30.02 38.55 30.22 38.02C30.42 37.5 30.74 37.02 31.15 36.63C31.56 36.23 32.05 35.93 32.58 35.75C33.12 35.57 33.69 35.51 34.25 35.57C35.15 35.53 36.04 35.75 36.8 36.21L36.01 38.31C35.56 38 35.02 37.83 34.46 37.83C33.23 37.83 32.62 38.5 32.62 39.74Z" fill="#263238" fill-opacity="1.000000" fill-rule="nonzero"/>
	<path id="Vector" d="M158.04 29.03L121.29 29.03C118.98 29.03 116.76 29.94 115.13 31.57C113.5 33.2 112.58 35.4 112.58 37.71L112.58 55.51C112.58 57.81 113.5 60.02 115.13 61.65C116.76 63.28 118.98 64.19 121.29 64.19L130.9 64.19L138.17 80.63L148.43 64.19L158.04 64.19C160.35 64.19 162.57 63.28 164.2 61.65C165.84 60.02 166.75 57.81 166.75 55.51L166.75 37.64C166.74 35.35 165.81 33.16 164.18 31.54C162.55 29.93 160.34 29.03 158.04 29.03Z" fill="#FFFFFF" fill-opacity="1.000000" fill-rule="nonzero"/>
	<path id="Vector" d="M121.29 29.03C118.98 29.03 116.76 29.94 115.13 31.57C113.5 33.2 112.58 35.4 112.58 37.71L112.58 55.51C112.58 57.81 113.5 60.02 115.13 61.65C116.76 63.28 118.98 64.19 121.29 64.19L130.9 64.19L138.17 80.63L148.43 64.19L158.04 64.19C160.35 64.19 162.57 63.28 164.2 61.65C165.84 60.02 166.75 57.81 166.75 55.51L166.75 37.64C166.74 35.35 165.81 33.16 164.18 31.54C162.55 29.93 160.34 29.03 158.04 29.03L121.29 29.03Z" stroke="#263238" stroke-opacity="1.000000" stroke-width="1.000000" stroke-linejoin="round"/>
	<path id="Vector" d="M129.02 49.7L119.63 49.7C119.82 50.57 120.31 51.34 121.03 51.86C121.75 52.39 122.63 52.64 123.52 52.56C124.12 52.58 124.72 52.48 125.28 52.26C125.84 52.03 126.34 51.69 126.76 51.26L128.26 53C127.35 53.89 126.21 54.51 124.96 54.78C123.72 55.06 122.42 54.97 121.22 54.53C120.02 54.09 118.97 53.33 118.2 52.32C117.43 51.31 116.96 50.1 116.85 48.83C116.82 48.02 116.96 47.21 117.27 46.46C117.57 45.7 118.02 45.02 118.6 44.45C119.18 43.88 119.87 43.43 120.63 43.14C121.39 42.84 122.2 42.71 123.01 42.74C123.83 42.71 124.64 42.84 125.4 43.14C126.16 43.44 126.84 43.9 127.41 44.48C127.98 45.06 128.42 45.75 128.71 46.51C128.99 47.28 129.11 48.09 129.06 48.9C129.06 49.09 129.04 49.44 129.02 49.7ZM119.62 47.86L126.39 47.86C126.31 47.03 125.91 46.27 125.28 45.73C124.66 45.19 123.84 44.91 123.01 44.94C122.18 44.91 121.37 45.19 120.74 45.74C120.11 46.28 119.71 47.03 119.62 47.86Z" fill="#263238" fill-opacity="1.000000" fill-rule="nonzero"/>
	<path id="Vector" d="M131.74 38.23L134.51 38.23L134.51 54.77L131.71 54.77L131.74 38.23Z" fill="#263238" fill-opacity="1.000000" fill-rule="nonzero"/>
	<path id="Vector" d="M136.84 53.59L137.91 51.47C139.16 52.23 140.6 52.64 142.07 52.65C143.81 52.65 144.58 52.16 144.58 51.33C144.58 49.06 137.19 51.19 137.19 46.45C137.19 44.2 139.23 42.72 142.42 42.72C143.97 42.7 145.51 43.05 146.89 43.75L145.82 45.86C144.76 45.25 143.55 44.94 142.33 44.98C140.59 44.98 139.82 45.53 139.82 46.31C139.82 48.73 147.21 46.57 147.21 51.24C147.21 53.46 145.15 54.92 141.79 54.92C140.05 54.93 138.34 54.47 136.84 53.59Z" fill="#263238" fill-opacity="1.000000" fill-rule="nonzero"/>
	<path id="Vector" d="M160.92 49.7L151.53 49.7C151.71 50.57 152.21 51.34 152.93 51.86C153.64 52.39 154.53 52.64 155.41 52.56C156.02 52.58 156.62 52.48 157.17 52.26C157.73 52.03 158.24 51.69 158.65 51.26L160.15 53C159.25 53.89 158.1 54.51 156.86 54.78C155.61 55.06 154.31 54.97 153.12 54.53C151.92 54.09 150.87 53.33 150.1 52.32C149.32 51.31 148.85 50.1 148.74 48.83C148.72 48.02 148.86 47.21 149.16 46.46C149.47 45.7 149.92 45.02 150.5 44.45C151.08 43.88 151.77 43.43 152.52 43.14C153.28 42.84 154.1 42.71 154.91 42.74C155.72 42.71 156.54 42.84 157.29 43.14C158.05 43.44 158.74 43.9 159.31 44.48C159.88 45.06 160.32 45.75 160.6 46.51C160.89 47.28 161.01 48.09 160.95 48.9C160.95 49.09 160.94 49.44 160.92 49.7ZM151.51 47.86L158.29 47.86C158.2 47.03 157.81 46.27 157.18 45.73C156.55 45.19 155.74 44.91 154.91 44.94C154.08 44.91 153.27 45.19 152.64 45.74C152 46.28 151.6 47.03 151.51 47.86Z" fill="#263238" fill-opacity="1.000000" fill-rule="nonzero"/>
	<path id="Vector" d="M266.5 27.97L229.75 27.97C227.44 27.97 225.22 28.88 223.59 30.51C221.95 32.14 221.04 34.35 221.04 36.65L221.04 54.47C221.04 56.77 221.95 58.98 223.59 60.61C225.22 62.23 227.44 63.15 229.75 63.15L239.36 63.15L246.63 79.58L256.89 63.15L266.5 63.15C268.81 63.15 271.03 62.23 272.66 60.61C274.3 58.98 275.21 56.77 275.21 54.47L275.21 36.58C275.19 34.29 274.27 32.1 272.64 30.49C271.01 28.87 268.8 27.97 266.5 27.97Z" fill="#FFFFFF" fill-opacity="1.000000" fill-rule="nonzero"/>
	<path id="Vector" d="M229.75 27.97C227.44 27.97 225.22 28.88 223.59 30.51C221.95 32.14 221.04 34.35 221.04 36.65L221.04 54.47C221.04 56.77 221.95 58.98 223.59 60.61C225.22 62.23 227.44 63.15 229.75 63.15L239.36 63.15L246.63 79.58L256.89 63.15L266.5 63.15C268.81 63.15 271.03 62.23 272.66 60.61C274.3 58.98 275.21 56.77 275.21 54.47L275.21 36.58C275.19 34.29 274.27 32.1 272.64 30.49C271.01 28.87 268.8 27.97 266.5 27.97L229.75 27.97Z" stroke="#263238" stroke-opacity="1.000000" stroke-width="1.000000" stroke-linejoin="round"/>
	<path id="Vector" d="M238.18 41.18L238.18 41.97L241.47 41.97L241.47 44.21L238.26 44.21L238.26 53.79L235.55 53.79L235.55 44.21L233.58 44.21L233.58 41.97L235.55 41.97L235.55 41.21C235.5 40.65 235.58 40.08 235.78 39.55C235.98 39.02 236.3 38.55 236.71 38.15C237.12 37.76 237.61 37.46 238.14 37.28C238.68 37.1 239.25 37.03 239.81 37.1C240.7 37.05 241.58 37.28 242.34 37.74L241.56 39.84C241.11 39.52 240.57 39.34 240.02 39.34C238.79 39.25 238.18 39.91 238.18 41.18Z" fill="#263238" fill-opacity="1.000000" fill-rule="nonzero"/>
	<path id="Vector" d="M242.18 47.75C242.14 46.49 242.47 45.24 243.14 44.16C243.81 43.08 244.79 42.23 245.95 41.71C247.11 41.2 248.4 41.04 249.65 41.25C250.91 41.47 252.06 42.06 252.98 42.94C253.9 43.82 254.53 44.95 254.79 46.19C255.06 47.43 254.94 48.72 254.47 49.9C253.99 51.07 253.17 52.08 252.11 52.78C251.06 53.49 249.81 53.87 248.54 53.86C247.71 53.91 246.88 53.79 246.11 53.5C245.33 53.21 244.62 52.77 244.02 52.2C243.42 51.62 242.95 50.93 242.64 50.17C242.32 49.4 242.17 48.58 242.18 47.75ZM252.1 47.75C252.05 47.08 251.8 46.43 251.39 45.9C250.98 45.36 250.42 44.95 249.78 44.73C249.15 44.5 248.45 44.47 247.8 44.63C247.14 44.79 246.54 45.13 246.07 45.63C245.61 46.12 245.3 46.74 245.19 47.4C245.07 48.07 245.15 48.76 245.42 49.38C245.69 50 246.14 50.52 246.7 50.9C247.27 51.27 247.93 51.47 248.61 51.47C249.09 51.47 249.56 51.37 250 51.18C250.44 50.99 250.84 50.72 251.17 50.37C251.49 50.02 251.74 49.61 251.9 49.16C252.06 48.71 252.13 48.23 252.1 47.75Z" fill="#263238" fill-opacity="1.000000" fill-rule="nonzero"/>
	<path id="Vector" d="M264.5 41.66L264.5 44.32C264.28 44.3 264.07 44.3 263.85 44.32C263.37 44.28 262.88 44.35 262.43 44.52C261.97 44.7 261.56 44.97 261.23 45.33C260.89 45.68 260.64 46.1 260.49 46.56C260.35 47.03 260.3 47.52 260.37 48L260.37 53.78L257.57 53.78L257.57 41.8L260.23 41.8L260.23 43.54C260.72 42.88 261.37 42.37 262.12 42.04C262.86 41.71 263.69 41.58 264.5 41.66Z" fill="#263238" fill-opacity="1.000000" fill-rule="nonzero"/>
	<path id="Vector" d="M373.39 26.53L336.58 26.53C334.27 26.53 332.06 27.44 330.43 29.07C328.79 30.7 327.87 32.9 327.87 35.21L327.87 53.03C327.87 55.33 328.79 57.54 330.43 59.17C332.06 60.79 334.27 61.71 336.58 61.71L346.2 61.71L353.47 78.14L363.72 61.71L373.34 61.71C375.65 61.71 377.87 60.79 379.5 59.17C381.13 57.54 382.05 55.33 382.05 53.03L382.05 35.14C382.03 32.86 381.11 30.67 379.49 29.06C377.87 27.45 375.68 26.54 373.39 26.53Z" fill="#FFFFFF" fill-opacity="1.000000" fill-rule="nonzero"/>
	<path id="Vector" d="M336.58 26.53C334.27 26.53 332.06 27.44 330.43 29.07C328.79 30.7 327.87 32.9 327.87 35.21L327.87 53.03C327.87 55.33 328.79 57.54 330.43 59.17C332.06 60.79 334.27 61.71 336.58 61.71L346.2 61.71L353.47 78.14L363.72 61.71L373.34 61.71C375.65 61.71 377.87 60.79 379.5 59.17C381.13 57.54 382.05 55.33 382.05 53.03L382.05 35.14C382.03 32.86 381.11 30.67 379.49 29.06C377.87 27.45 375.68 26.54 373.39 26.53L336.58 26.53Z" stroke="#263238" stroke-opacity="1.000000" stroke-width="1.000000" stroke-linejoin="round"/>
	<path id="Vector" d="M350.24 39.77L360.56 39.77L360.56 41.97L350.24 41.97L350.24 39.77ZM350.24 45.17L360.56 45.17L360.56 47.41L350.24 47.41L350.24 45.17Z" fill="#263238" fill-opacity="1.000000" fill-rule="nonzero"/>
	<path id="Vector" d="M102.19 5.93L65.44 5.93C63.13 5.93 60.91 6.84 59.28 8.47C57.65 10.1 56.73 12.3 56.73 14.61L56.73 32.41C56.73 34.71 57.65 36.92 59.28 38.55C60.91 40.18 63.13 41.09 65.44 41.09L75.05 41.09L82.32 57.53L92.58 41.09L102.19 41.09C104.51 41.09 106.72 40.18 108.35 38.55C109.99 36.92 110.9 34.71 110.9 32.41L110.9 14.54C110.89 12.25 109.96 10.06 108.33 8.44C106.7 6.83 104.49 5.93 102.19 5.93Z" fill="#FFFFFF" fill-opacity="1.000000" fill-rule="nonzero"/>
	<path id="Vector" d="M65.44 5.93C63.13 5.93 60.91 6.84 59.28 8.47C57.65 10.1 56.73 12.3 56.73 14.61L56.73 32.41C56.73 34.71 57.65 36.92 59.28 38.55C60.91 40.18 63.13 41.09 65.44 41.09L75.05 41.09L82.32 57.53L92.58 41.09L102.19 41.09C104.51 41.09 106.72 40.18 108.35 38.55C109.99 36.92 110.9 34.71 110.9 32.41L110.9 14.54C110.89 12.25 109.96 10.06 108.33 8.44C106.7 6.83 104.49 5.93 102.19 5.93L65.44 5.93Z" stroke="#263238" stroke-opacity="1.000000" stroke-width="1.000000" stroke-linejoin="round"/>
	<path id="Vector" d="M75.17 13.32L80.51 13.32L80.51 15.56L77.96 15.56L77.96 31.96L80.51 31.96L80.51 34.2L75.17 34.2L75.17 13.32Z" fill="#263238" fill-opacity="1.000000" fill-rule="nonzero"/>
	<path id="Vector" d="M87.47 34.2L87.47 31.96L90 31.96L90 15.56L87.47 15.56L87.47 13.32L92.7 13.32L92.7 34.15L87.47 34.2Z" fill="#263238" fill-opacity="1.000000" fill-rule="nonzero"/>
	<path id="Vector" d="M211.46 4.1L174.7 4.1C172.39 4.1 170.17 5.02 168.54 6.65C166.91 8.27 165.99 10.48 165.99 12.78L165.99 30.52C165.99 32.82 166.91 35.03 168.54 36.66C170.17 38.28 172.39 39.2 174.7 39.2L184.31 39.2L191.6 55.63L201.86 39.2L211.46 39.2C213.77 39.2 215.98 38.28 217.61 36.66C219.25 35.03 220.17 32.82 220.17 30.52L220.17 12.71C220.15 10.42 219.22 8.23 217.59 6.62C215.96 5.01 213.75 4.1 211.46 4.1Z" fill="#FFFFFF" fill-opacity="1.000000" fill-rule="nonzero"/>
	<path id="Vector" d="M174.7 4.1C172.39 4.1 170.17 5.02 168.54 6.65C166.91 8.27 165.99 10.48 165.99 12.78L165.99 30.52C165.99 32.82 166.91 35.03 168.54 36.66C170.17 38.28 172.39 39.2 174.7 39.2L184.31 39.2L191.6 55.63L201.86 39.2L211.46 39.2C213.77 39.2 215.98 38.28 217.61 36.66C219.25 35.03 220.17 32.82 220.17 30.52L220.17 12.71C220.15 10.42 219.22 8.23 217.59 6.62C215.96 5.01 213.75 4.1 211.46 4.1L174.7 4.1Z" stroke="#263238" stroke-opacity="1.000000" stroke-width="1.000000" stroke-linejoin="round"/>
	<path id="Vector" d="M185.6 21.86C186.49 22.15 186.93 22.76 186.93 24.13L186.93 28.39C186.89 28.61 186.9 28.85 186.97 29.07C187.04 29.29 187.16 29.5 187.32 29.67C187.48 29.84 187.68 29.96 187.9 30.04C188.11 30.12 188.35 30.15 188.58 30.12L189.05 30.12L189.05 32.36L187.92 32.36C187.42 32.43 186.9 32.39 186.42 32.24C185.93 32.08 185.49 31.82 185.12 31.47C184.75 31.12 184.47 30.69 184.3 30.21C184.13 29.73 184.07 29.22 184.12 28.72L184.12 24.13C184.12 23.39 183.74 23.06 183.11 23.06L182.38 23.06L182.38 20.78L183.11 20.78C183.74 20.78 184.12 20.45 184.12 19.71L184.12 15.11C184.07 14.6 184.13 14.09 184.3 13.62C184.47 13.14 184.75 12.71 185.12 12.36C185.49 12.01 185.93 11.75 186.42 11.59C186.9 11.44 187.42 11.4 187.92 11.48L189.05 11.48L189.05 13.72L188.51 13.72C188.28 13.69 188.04 13.71 187.82 13.79C187.6 13.87 187.4 14 187.24 14.17C187.08 14.34 186.96 14.54 186.89 14.76C186.83 14.99 186.81 15.23 186.86 15.46L186.86 19.69C186.93 20.97 186.49 21.58 185.6 21.86Z" fill="#263238" fill-opacity="1.000000" fill-rule="nonzero"/>
	<path id="Vector" d="M202.68 20.73L202.68 23.01L201.91 23.01C201.3 23.01 200.92 23.33 200.92 24.08L200.92 28.66C200.97 29.17 200.91 29.68 200.73 30.16C200.56 30.63 200.27 31.06 199.9 31.42C199.54 31.77 199.09 32.03 198.61 32.19C198.12 32.34 197.6 32.38 197.1 32.31L195.97 32.31L195.97 30.07L196.44 30.07C196.68 30.11 196.92 30.09 197.15 30.02C197.38 29.94 197.59 29.82 197.76 29.65C197.93 29.48 198.05 29.27 198.13 29.04C198.2 28.81 198.22 28.57 198.18 28.33L198.18 24.08C198.18 22.71 198.58 22.1 199.47 21.81C198.58 21.53 198.18 20.92 198.18 19.53L198.18 15.3C198.22 15.06 198.21 14.82 198.14 14.59C198.06 14.36 197.94 14.15 197.77 13.98C197.6 13.81 197.38 13.68 197.15 13.61C196.92 13.54 196.68 13.52 196.44 13.56L195.97 13.56L195.97 11.43L197.1 11.43C197.6 11.35 198.12 11.39 198.6 11.54C199.09 11.7 199.54 11.96 199.9 12.31C200.27 12.66 200.56 13.09 200.73 13.56C200.91 14.04 200.97 14.55 200.92 15.06L200.92 19.66C200.92 20.4 201.3 20.73 201.91 20.73L202.68 20.73Z" fill="#263238" fill-opacity="1.000000" fill-rule="nonzero"/>
	<path id="Vector" d="M319.56 0.5L282.81 0.5C280.5 0.5 278.28 1.41 276.65 3.04C275.02 4.66 274.1 6.87 274.1 9.17L274.1 26.98C274.1 29.28 275.02 31.49 276.65 33.12C278.28 34.74 280.5 35.66 282.81 35.66L292.41 35.66L299.69 52.09L309.95 35.66L319.56 35.66C321.88 35.66 324.09 34.74 325.72 33.12C327.36 31.49 328.27 29.28 328.27 26.98L328.27 9.1C328.26 6.81 327.33 4.62 325.7 3.01C324.07 1.4 321.86 0.49 319.56 0.5Z" fill="#FFFFFF" fill-opacity="1.000000" fill-rule="nonzero"/>
	<path id="Vector" d="M282.81 0.5C280.5 0.5 278.28 1.41 276.65 3.04C275.02 4.66 274.1 6.87 274.1 9.17L274.1 26.98C274.1 29.28 275.02 31.49 276.65 33.12C278.28 34.74 280.5 35.66 282.81 35.66L292.41 35.66L299.69 52.09L309.95 35.66L319.56 35.66C321.88 35.66 324.09 34.74 325.72 33.12C327.36 31.49 328.27 29.28 328.27 26.98L328.27 9.1C328.26 6.81 327.33 4.62 325.7 3.01C324.07 1.4 321.86 0.49 319.56 0.5L282.81 0.5Z" stroke="#263238" stroke-opacity="1.000000" stroke-width="1.000000" stroke-linejoin="round"/>
	<path id="Vector" d="M299.72 13.67C299.7 13.41 299.73 13.15 299.81 12.91C299.89 12.67 300.02 12.44 300.19 12.25C300.37 12.06 300.58 11.91 300.81 11.81C301.05 11.7 301.3 11.65 301.56 11.65C301.82 11.65 302.07 11.7 302.31 11.81C302.54 11.91 302.76 12.06 302.93 12.25C303.1 12.44 303.23 12.67 303.31 12.91C303.39 13.15 303.42 13.41 303.4 13.67C303.42 13.92 303.39 14.18 303.31 14.42C303.23 14.67 303.1 14.89 302.93 15.08C302.76 15.27 302.54 15.42 302.31 15.53C302.07 15.63 301.82 15.69 301.56 15.69C301.3 15.69 301.05 15.63 300.81 15.53C300.58 15.42 300.37 15.27 300.19 15.08C300.02 14.89 299.89 14.67 299.81 14.42C299.73 14.18 299.7 13.92 299.72 13.67ZM303.4 22.17C303.35 22.84 303.17 23.48 302.88 24.08L301.73 27.24L299.98 27.24L300.89 23.77C300.57 23.63 300.29 23.4 300.1 23.11C299.91 22.81 299.82 22.47 299.83 22.12C299.83 21.64 300.02 21.18 300.36 20.84C300.7 20.5 301.17 20.31 301.65 20.31C302.13 20.31 302.59 20.5 302.93 20.84C303.28 21.18 303.47 21.64 303.47 22.12L303.4 22.17Z" fill="#263238" fill-opacity="1.000000" fill-rule="nonzero"/>
	<path id="Vector" d="M175.88 311.92L212.62 311.92C214.93 311.92 217.15 311.01 218.78 309.38C220.41 307.75 221.33 305.55 221.33 303.25L221.33 285.49C221.31 283.2 220.38 281.02 218.75 279.41C217.12 277.8 214.92 276.9 212.62 276.9L203.02 276.9L200.22 260.46L185.48 276.9L175.88 276.9C173.59 276.9 171.39 277.8 169.75 279.41C168.12 281.02 167.2 283.2 167.17 285.49L167.17 303.32C167.19 305.6 168.12 307.79 169.75 309.41C171.38 311.02 173.58 311.92 175.88 311.92Z" fill="#FFFFFF" fill-opacity="1.000000" fill-rule="nonzero"/>
	<path id="Vector" d="M212.62 311.92C214.93 311.92 217.15 311.01 218.78 309.38C220.41 307.75 221.33 305.55 221.33 303.25L221.33 285.49C221.31 283.2 220.38 281.02 218.75 279.41C217.12 277.8 214.92 276.9 212.62 276.9L203.02 276.9L200.22 260.46L185.48 276.9L175.88 276.9C173.59 276.9 171.39 277.8 169.75 279.41C168.12 281.02 167.2 283.2 167.17 285.49L167.17 303.32C167.19 305.6 168.12 307.79 169.75 309.41C171.38 311.02 173.58 311.92 175.88 311.92L212.62 311.92Z" stroke="#263238" stroke-opacity="1.000000" stroke-width="1.000000" stroke-linejoin="round"/>
	<path id="Vector" d="M188.79 290.75L181.07 293.63L188.79 296.51L188.79 298.84L178.48 294.85L178.48 292.42L188.79 288.42L188.79 290.75Z" fill="#263238" fill-opacity="1.000000" fill-rule="nonzero"/>
	<path id="Vector" d="M196.94 282.64L199.43 282.64L192 303.66L189.56 303.66L196.94 282.64Z" fill="#263238" fill-opacity="1.000000" fill-rule="nonzero"/>
	<path id="Vector" d="M210.29 292.42L210.29 294.83L199.97 298.82L199.97 296.49L207.67 293.63L199.96 290.77L199.96 288.42L210.29 292.42Z" fill="#263238" fill-opacity="1.000000" fill-rule="nonzero"/>
</svg>
