<svg width="190.000000" height="80.000000" viewBox="0 0 190 80" fill="none" xmlns="http://www.w3.org/2000/svg" xmlns:xlink="http://www.w3.org/1999/xlink">
	<desc>
			Created with Pixso.
	</desc>
	<defs>
		<clipPath id="clip58_1">
			<rect id="app-logo" width="80.000000" height="80.000000" transform="translate(37.000000 0.000000)" fill="white" fill-opacity="0"/>
		</clipPath>
	</defs>
	<path id="IT" d="M21.92 25.8L17.96 25.8L17.96 51L21.92 51L21.92 25.8ZM23.83 29.39L27.97 29.39L27.97 51L31.93 51L31.93 29.39L36.07 29.39L36.07 25.8L23.83 25.8L23.83 29.39Z" fill="#22253B" fill-opacity="1.000000" fill-rule="evenodd"/>
	<path id="QUIZ" d="M128.38 52.59Q129.23 53.33 130.73 53.33L131.77 53.33L131.77 49.74L131.16 49.74Q130.55 49.74 130.23 49.63Q130.2 49.62 130.17 49.61Q129.88 49.49 129.68 49.16Q130.8 47.54 130.8 45.02L130.8 31.77Q130.8 28.84 129.34 27.2Q129.3 27.15 129.25 27.1Q129.04 26.87 128.8 26.67Q127.3 25.44 124.79 25.44Q122.27 25.44 120.77 26.67Q120.53 26.87 120.32 27.1Q120.27 27.15 120.23 27.2Q118.77 28.84 118.77 31.77L118.77 45.02Q118.77 47.95 120.23 49.6Q120.27 49.65 120.32 49.7Q120.53 49.92 120.75 50.11Q122.25 51.36 124.79 51.36Q126.3 51.36 127.41 50.92Q127.69 52 128.38 52.59ZM135.27 50.13Q136.74 51.36 139.22 51.36Q141.72 51.36 143.19 50.12Q143.42 49.94 143.62 49.72Q145.13 48.08 145.13 45.02L145.13 25.8L141.31 25.8L141.31 45.31Q141.31 46.6 140.78 47.18Q140.7 47.28 140.6 47.36Q140.1 47.75 139.29 47.75Q138.5 47.75 138 47.37Q137.89 47.28 137.8 47.18Q137.28 46.6 137.28 45.31L137.28 25.8L133.32 25.8L133.32 45.02Q133.32 48.08 134.84 49.72Q135.04 49.94 135.27 50.13ZM151.89 25.8L147.94 25.8L147.94 51L151.89 51L151.89 25.8ZM161.39 29.39L154.06 47.47L154.06 51L165.65 51L165.65 47.39L158.3 47.39L165.65 29.32L165.65 25.8L154.42 25.8L154.42 29.39L161.39 29.39ZM126.12 47.34Q125.62 47.75 124.79 47.75Q123.95 47.75 123.46 47.34Q122.74 46.75 122.74 45.27L122.74 31.52Q122.74 30.04 123.47 29.44Q123.96 29.03 124.79 29.03Q125.62 29.03 126.12 29.44Q126.84 30.04 126.84 31.52L126.84 45.27Q126.84 46.74 126.12 47.34Z" fill="#22253B" fill-opacity="1.000000" fill-rule="evenodd"/>
	<g clip-path="url(#clip58_1)">
		<path id="path" d="M56.84 36.75C56.84 37.19 56.85 37.63 56.87 38.08C56.89 38.52 56.93 38.96 56.97 39.4C57.01 39.83 57.07 40.27 57.13 40.71C57.2 41.15 57.27 41.58 57.36 42.01C57.44 42.45 57.54 42.88 57.65 43.3C57.75 43.73 57.87 44.16 58 44.58C58.13 45 58.27 45.42 58.41 45.84C58.56 46.25 58.72 46.66 58.89 47.07C59.06 47.48 59.24 47.88 59.43 48.28C59.62 48.68 59.82 49.08 60.02 49.46C60.23 49.85 60.45 50.24 60.68 50.62C60.9 50.99 61.14 51.37 61.38 51.73C61.63 52.1 61.88 52.46 62.15 52.82C62.41 53.17 62.68 53.52 62.96 53.86C63.24 54.2 63.53 54.54 63.83 54.86C64.12 55.19 64.43 55.51 64.74 55.82C65.05 56.13 65.37 56.44 65.7 56.73C66.02 57.03 66.36 57.32 66.7 57.6C67.04 57.88 67.39 58.15 67.74 58.41C68.1 58.68 68.46 58.93 68.82 59.17C69.19 59.42 69.56 59.66 69.94 59.88C70.32 60.11 70.71 60.33 71.09 60.54C71.48 60.74 71.88 60.94 72.28 61.13C72.68 61.32 73.08 61.5 73.49 61.67C73.89 61.84 74.31 61.99 74.72 62.14C75.14 62.29 75.56 62.43 75.98 62.56C76.4 62.69 76.83 62.8 77.25 62.91C77.68 63.02 78.11 63.12 78.54 63.2C78.98 63.29 79.41 63.36 79.85 63.43C80.29 63.49 80.72 63.55 81.16 63.59C81.6 63.63 82.04 63.67 82.48 63.69C82.92 63.71 83.37 63.72 83.81 63.72C84.25 63.72 84.69 63.71 85.13 63.69C85.57 63.67 86.01 63.63 86.45 63.59C86.89 63.55 87.33 63.49 87.76 63.43C88.2 63.36 88.63 63.29 89.07 63.2C89.5 63.12 89.93 63.02 90.36 62.91C90.79 62.8 91.21 62.69 91.63 62.56C92.06 62.43 92.48 62.29 92.89 62.14C93.31 61.99 93.72 61.84 94.13 61.67C94.53 61.5 94.94 61.32 95.34 61.13C95.74 60.94 96.13 60.74 96.52 60.54C96.91 60.33 97.29 60.11 97.67 59.88C98.05 59.66 98.42 59.42 98.79 59.17C99.16 58.93 99.52 58.68 99.87 58.41C100.23 58.15 100.57 57.88 100.91 57.6C101.26 57.32 101.59 57.03 101.92 56.73C102.24 56.44 102.56 56.13 102.88 55.82C103.19 55.51 103.49 55.19 103.79 54.86C104.09 54.54 104.37 54.2 104.65 53.86C104.93 53.52 105.2 53.17 105.47 52.82C105.73 52.46 105.98 52.1 106.23 51.73C106.47 51.37 106.71 50.99 106.94 50.62C107.16 50.24 107.38 49.85 107.59 49.46C107.8 49.08 108 48.68 108.18 48.28C108.37 47.88 108.55 47.48 108.72 47.07C108.89 46.66 109.05 46.25 109.2 45.84C109.35 45.42 109.48 45 109.61 44.58C109.74 44.16 109.86 43.73 109.97 43.3C110.07 42.88 110.17 42.45 110.26 42.01C110.34 41.58 110.42 41.15 110.48 40.71C110.55 40.27 110.6 39.83 110.64 39.4C110.69 38.96 110.72 38.52 110.74 38.08C110.76 37.63 110.77 37.19 110.77 36.75C110.77 36.31 110.76 35.87 110.74 35.43C110.72 34.99 110.69 34.55 110.64 34.11C110.6 33.67 110.55 33.23 110.48 32.79C110.42 32.36 110.34 31.92 110.26 31.49C110.17 31.06 110.07 30.63 109.97 30.2C109.86 29.77 109.74 29.35 109.61 28.92C109.48 28.5 109.35 28.08 109.2 27.67C109.05 27.25 108.89 26.84 108.72 26.43C108.55 26.02 108.37 25.62 108.18 25.22C108 24.82 107.8 24.43 107.59 24.04C107.38 23.65 107.16 23.27 106.94 22.89C106.71 22.51 106.47 22.14 106.23 21.77C105.98 21.4 105.73 21.04 105.47 20.69C105.2 20.33 104.93 19.98 104.65 19.64C104.37 19.3 104.09 18.97 103.79 18.64C103.49 18.31 103.19 17.99 102.88 17.68C102.56 17.37 102.24 17.07 101.92 16.77C101.59 16.47 101.26 16.19 100.91 15.91C100.57 15.63 100.23 15.35 99.87 15.09C99.52 14.83 99.16 14.57 98.79 14.33C98.42 14.08 98.05 13.85 97.67 13.62C97.29 13.39 96.91 13.18 96.52 12.97C96.13 12.76 95.74 12.56 95.34 12.37C94.94 12.18 94.53 12.01 94.13 11.84C93.72 11.67 93.31 11.51 92.89 11.36C92.48 11.21 92.06 11.07 91.63 10.95C91.21 10.82 90.79 10.7 90.36 10.59C89.93 10.49 89.5 10.39 89.07 10.3C88.63 10.22 88.2 10.14 87.76 10.08C87.33 10.01 86.89 9.96 86.45 9.91C86.01 9.87 85.57 9.84 85.13 9.82C84.69 9.8 84.25 9.78 83.81 9.78C83.37 9.78 82.92 9.8 82.48 9.82C82.04 9.84 81.6 9.87 81.16 9.91C80.72 9.96 80.29 10.01 79.85 10.08C79.41 10.14 78.98 10.22 78.54 10.3C78.11 10.39 77.68 10.49 77.25 10.59C76.83 10.7 76.4 10.82 75.98 10.95C75.56 11.07 75.14 11.21 74.72 11.36C74.31 11.51 73.89 11.67 73.49 11.84C73.08 12.01 72.68 12.18 72.28 12.37C71.88 12.56 71.48 12.76 71.09 12.97C70.71 13.18 70.32 13.39 69.94 13.62C69.56 13.85 69.19 14.08 68.82 14.33C68.46 14.57 68.1 14.83 67.74 15.09C67.39 15.35 67.04 15.63 66.7 15.91C66.36 16.19 66.02 16.47 65.7 16.77C65.37 17.07 65.05 17.37 64.74 17.68C64.43 17.99 64.12 18.31 63.83 18.64C63.53 18.97 63.24 19.3 62.96 19.64C62.68 19.98 62.41 20.33 62.15 20.69C61.88 21.04 61.63 21.4 61.38 21.77C61.14 22.14 60.9 22.51 60.68 22.89C60.45 23.27 60.23 23.65 60.02 24.04C59.82 24.43 59.62 24.82 59.43 25.22C59.24 25.62 59.06 26.02 58.89 26.43C58.72 26.84 58.56 27.25 58.41 27.67C58.27 28.08 58.13 28.5 58 28.92C57.87 29.35 57.75 29.77 57.65 30.2C57.54 30.63 57.44 31.06 57.36 31.49C57.27 31.92 57.2 32.36 57.13 32.79C57.07 33.23 57.01 33.67 56.97 34.11C56.93 34.55 56.89 34.99 56.87 35.43C56.85 35.87 56.84 36.31 56.84 36.75Z" fill="#38BFF2" fill-opacity="1.000000" fill-rule="nonzero"/>
		<path id="path" d="M83.81 64.33C68.6 64.33 56.22 51.96 56.22 36.75C56.22 21.54 68.6 9.17 83.81 9.17C99.01 9.17 111.39 21.54 111.39 36.75C111.39 51.96 99.01 64.33 83.81 64.33ZM83.81 10.4C69.27 10.4 57.45 22.22 57.45 36.75C57.45 51.28 69.27 63.11 83.81 63.11C98.34 63.11 110.16 51.28 110.16 36.75C110.16 22.22 98.34 10.4 83.81 10.4Z" fill="#6B0204" fill-opacity="1.000000" fill-rule="nonzero"/>
		<path id="path" d="M52.92 60.2C53.25 60.63 53.09 61.32 52.55 61.73L47.45 65.64C46.92 66.05 46.21 66.03 45.88 65.6C45.55 65.16 45.71 64.48 46.24 64.07L51.35 60.15C51.88 59.74 52.59 59.76 52.92 60.2ZM54.09 66.6C54.43 67.04 54.26 67.72 53.73 68.13L48.62 72.05C48.09 72.46 47.39 72.44 47.05 72C46.72 71.57 46.88 70.88 47.42 70.47L52.52 66.56C53.06 66.15 53.76 66.17 54.09 66.6ZM47.04 57.4C47.37 57.84 47.21 58.52 46.67 58.93L41.57 62.85C41.03 63.26 40.33 63.24 40 62.8C39.66 62.37 39.83 61.68 40.36 61.27L45.47 57.36C46.83 56.31 47.17 57.57 47.04 57.4Z" fill="#6C0000" fill-opacity="1.000000" fill-rule="nonzero"/>
		<path id="path" d="M63.25 35.27C63.25 35.27 55.88 30.79 42.58 42.05L55.4 47.7L63.25 35.27Z" fill="#BED5E9" fill-opacity="1.000000" fill-rule="nonzero"/>
		<path id="path" d="M55.63 48.47L41.44 42.22L42.19 41.58C49.8 35.13 55.55 33.78 59.03 33.78C61.94 33.78 63.5 34.71 63.57 34.75L64.1 35.07L55.63 48.47ZM43.74 41.89L55.16 46.92L62.35 35.54C61.73 35.31 60.61 35.01 59.03 35.01C55.87 35.01 50.68 36.22 43.74 41.89Z" fill="#6C0000" fill-opacity="1.000000" fill-rule="nonzero"/>
		<path id="path" d="M79.09 55.94C79.09 55.94 81.51 64.22 67.19 74.14L65.06 60.3L79.09 55.94Z" fill="#BED5E9" fill-opacity="1.000000" fill-rule="nonzero"/>
		<path id="path" d="M66.73 75.2L64.37 59.87L79.51 55.17L79.68 55.76C79.79 56.12 82.06 64.59 67.54 74.64L66.73 75.2ZM65.75 60.73L67.64 73.06C78.43 65.3 78.79 58.73 78.6 56.73L65.75 60.73Z" fill="#6C0000" fill-opacity="1.000000" fill-rule="nonzero"/>
		<path id="path" d="M82.39 53.36C94.22 44.29 100.28 32.32 95.91 26.63C91.55 20.94 78.42 23.68 66.59 32.75C58.88 38.66 53.63 45.8 52.11 51.63C52.09 51.67 52.08 51.71 52.08 51.75C52.07 51.95 59.42 54.31 59.93 62.04C59.94 62.13 59.97 62.21 60.03 62.28C60.1 62.38 60.2 62.44 60.31 62.46C60.35 62.46 60.38 62.46 60.42 62.45C66.44 62.49 74.69 59.27 82.39 53.36Z" fill="#BED5E9" fill-opacity="1.000000" fill-rule="nonzero"/>
		<path id="path" d="M60.34 63.07L60.21 63.06C59.96 63.03 59.71 62.88 59.54 62.66C59.41 62.48 59.33 62.29 59.32 62.07C59.04 57.91 56.65 54.7 52.21 52.53C51.76 52.31 51.44 52.15 51.47 51.71C51.47 51.63 51.49 51.55 51.52 51.47C53.14 45.26 58.63 38.08 66.21 32.27C73.74 26.5 82.05 23.05 88.46 23.05C92.04 23.05 94.79 24.16 96.4 26.26C100.96 32.21 94.85 44.59 82.77 53.85C75.24 59.62 66.93 63.07 60.53 63.07L60.34 63.07ZM52.8 51.45C57.57 53.8 60.17 57.3 60.53 61.84C66.67 61.84 74.71 58.49 82.02 52.88C93.56 44.02 99.58 32.42 95.42 27C94.06 25.22 91.65 24.28 88.46 24.28C82.32 24.28 74.28 27.63 66.96 33.24C59.73 38.79 54.46 45.57 52.8 51.45Z" fill="#6C0000" fill-opacity="1.000000" fill-rule="nonzero"/>
		<path id="path" d="M76.32 56.92L61.42 37.29C60.61 38.15 59.83 39.03 59.08 39.94L73.15 58.48C74.22 58 75.28 57.48 76.32 56.92Z" fill="#FFFFFF" fill-opacity="1.000000" fill-rule="nonzero"/>
		<path id="path" d="M72.95 59.24L58.3 39.93L58.61 39.56C59.36 38.63 60.15 37.73 60.97 36.87L61.47 36.34L77.24 57.13L76.61 57.47C75.56 58.03 74.49 58.56 73.4 59.04L72.95 59.24ZM59.86 39.96L73.34 57.72C74.03 57.4 74.72 57.07 75.39 56.72L61.37 38.24C60.85 38.8 60.35 39.37 59.86 39.96Z" fill="#6C0000" fill-opacity="1.000000" fill-rule="nonzero"/>
		<path id="path" d="M69.76 60.53L56.39 43.1C55.85 43.77 55.24 44.73 54.82 45.73L66.72 61.43C67.57 61.32 68.97 60.87 69.76 60.53Z" fill="#FFFFFF" fill-opacity="1.000000" fill-rule="nonzero"/>
		<path id="path" d="M66.45 62.09L54.11 45.82L54.25 45.49C54.65 44.55 55.25 43.54 55.91 42.72L56.4 42.1L70.72 60.78L70 61.09C69.18 61.45 67.72 61.92 66.8 62.04L66.45 62.09ZM55.53 45.65L66.99 60.76C67.52 60.66 68.19 60.46 68.78 60.25L56.4 44.12C56.07 44.61 55.78 45.12 55.53 45.65Z" fill="#6C0000" fill-opacity="1.000000" fill-rule="nonzero"/>
		<path id="path" d="M74.91 38.45C74.91 38.64 74.92 38.82 74.94 39C74.95 39.18 74.98 39.36 75.02 39.54C75.05 39.72 75.09 39.9 75.15 40.07C75.2 40.24 75.26 40.42 75.33 40.58C75.4 40.75 75.48 40.92 75.56 41.08C75.65 41.24 75.74 41.4 75.85 41.55C75.95 41.7 76.06 41.84 76.17 41.99C76.29 42.13 76.41 42.26 76.54 42.39C76.67 42.52 76.8 42.64 76.94 42.76C77.08 42.87 77.23 42.98 77.38 43.08C77.53 43.18 77.69 43.28 77.85 43.36C78.01 43.45 78.17 43.53 78.34 43.6C78.51 43.67 78.68 43.73 78.86 43.78C79.03 43.83 79.21 43.88 79.39 43.91C79.57 43.95 79.75 43.98 79.93 43.99C80.11 44.01 80.29 44.02 80.47 44.02C80.66 44.02 80.84 44.01 81.02 43.99C81.2 43.98 81.38 43.95 81.56 43.91C81.74 43.88 81.91 43.83 82.09 43.78C82.26 43.73 82.43 43.67 82.6 43.6C82.77 43.53 82.94 43.45 83.1 43.36C83.26 43.28 83.41 43.18 83.57 43.08C83.72 42.98 83.86 42.87 84 42.76C84.15 42.64 84.28 42.52 84.41 42.39C84.54 42.26 84.66 42.13 84.78 41.99C84.89 41.84 85 41.7 85.1 41.55C85.2 41.4 85.3 41.24 85.38 41.08C85.47 40.92 85.54 40.75 85.62 40.58C85.68 40.42 85.75 40.24 85.8 40.07C85.85 39.9 85.9 39.72 85.93 39.54C85.97 39.36 85.99 39.18 86.01 39C86.03 38.82 86.04 38.64 86.04 38.45C86.04 38.27 86.03 38.09 86.01 37.91C85.99 37.73 85.97 37.55 85.93 37.37C85.9 37.19 85.85 37.01 85.8 36.84C85.75 36.66 85.68 36.49 85.62 36.32C85.54 36.15 85.47 35.99 85.38 35.83C85.3 35.67 85.2 35.51 85.1 35.36C85 35.21 84.89 35.06 84.78 34.92C84.66 34.78 84.54 34.65 84.41 34.52C84.28 34.39 84.15 34.27 84 34.15C83.86 34.03 83.72 33.93 83.57 33.82C83.41 33.72 83.26 33.63 83.1 33.54C82.94 33.46 82.77 33.38 82.6 33.31C82.43 33.24 82.26 33.18 82.09 33.13C81.91 33.07 81.74 33.03 81.56 32.99C81.38 32.96 81.2 32.93 81.02 32.91C80.84 32.89 80.66 32.89 80.47 32.89C80.29 32.89 80.11 32.89 79.93 32.91C79.75 32.93 79.57 32.96 79.39 32.99C79.21 33.03 79.03 33.07 78.86 33.13C78.68 33.18 78.51 33.24 78.34 33.31C78.17 33.38 78.01 33.46 77.85 33.54C77.69 33.63 77.53 33.72 77.38 33.82C77.23 33.93 77.08 34.03 76.94 34.15C76.8 34.27 76.67 34.39 76.54 34.52C76.41 34.65 76.29 34.78 76.17 34.92C76.06 35.06 75.95 35.21 75.85 35.36C75.74 35.51 75.65 35.67 75.56 35.83C75.48 35.99 75.4 36.15 75.33 36.32C75.26 36.49 75.2 36.66 75.15 36.84C75.09 37.01 75.05 37.19 75.02 37.37C74.98 37.55 74.95 37.73 74.94 37.91C74.92 38.09 74.91 38.27 74.91 38.45Z" fill="#ECF3FE" fill-opacity="1.000000" fill-rule="nonzero"/>
		<path id="path" d="M80.47 44.63C77.07 44.63 74.3 41.86 74.3 38.45C74.3 35.05 77.07 32.28 80.47 32.28C83.88 32.28 86.65 35.05 86.65 38.45C86.65 41.86 83.88 44.63 80.47 44.63ZM80.47 33.5C77.74 33.5 75.52 35.72 75.52 38.45C75.52 41.18 77.74 43.4 80.47 43.4C83.2 43.4 85.42 41.18 85.42 38.45C85.42 35.72 83.2 33.5 80.47 33.5Z" fill="#6C0000" fill-opacity="1.000000" fill-rule="nonzero"/>
		<path id="path" d="M82.14 34.08C83.67 34.86 84.32 36.69 84.11 38.51C83.67 42.49 78.96 42.92 78.49 42.76C79.17 43.1 79.88 43.28 80.64 43.28C83.25 43.28 85.36 41.16 85.36 38.56C85.36 36.47 84.01 34.71 82.14 34.08Z" fill="#BED5E9" fill-opacity="1.000000" fill-rule="nonzero"/>
		<path id="path" d="M108.47 13.34C108.47 13.54 108.49 13.73 108.52 13.93C108.56 14.12 108.62 14.31 108.69 14.49C108.77 14.67 108.86 14.85 108.97 15.01C109.08 15.17 109.21 15.32 109.35 15.46C109.48 15.6 109.64 15.73 109.8 15.84C109.96 15.95 110.14 16.04 110.32 16.11C110.5 16.19 110.69 16.25 110.88 16.29C111.08 16.32 111.27 16.34 111.47 16.34C111.66 16.34 111.86 16.32 112.05 16.29C112.25 16.25 112.43 16.19 112.62 16.11C112.8 16.04 112.97 15.95 113.14 15.84C113.3 15.73 113.45 15.6 113.59 15.46C113.73 15.32 113.85 15.17 113.96 15.01C114.07 14.85 114.17 14.67 114.24 14.49C114.32 14.31 114.37 14.12 114.41 13.93C114.45 13.73 114.47 13.54 114.47 13.34C114.47 13.14 114.45 12.95 114.41 12.76C114.37 12.56 114.32 12.37 114.24 12.19C114.17 12.01 114.07 11.84 113.96 11.67C113.85 11.51 113.73 11.36 113.59 11.22C113.45 11.08 113.3 10.96 113.14 10.85C112.97 10.74 112.8 10.64 112.62 10.57C112.43 10.49 112.25 10.44 112.05 10.4C111.86 10.36 111.66 10.34 111.47 10.34C111.27 10.34 111.08 10.36 110.88 10.4C110.69 10.44 110.5 10.49 110.32 10.57C110.14 10.64 109.96 10.74 109.8 10.85C109.64 10.96 109.48 11.08 109.35 11.22C109.21 11.36 109.08 11.51 108.97 11.67C108.86 11.84 108.77 12.01 108.69 12.19C108.62 12.37 108.56 12.56 108.52 12.76C108.49 12.95 108.47 13.14 108.47 13.34Z" fill="#FFFFFF" fill-opacity="1.000000" fill-rule="nonzero"/>
		<path id="path" d="M111.47 16.96C109.47 16.96 107.85 15.33 107.85 13.34C107.85 11.35 109.47 9.73 111.47 9.73C113.46 9.73 115.08 11.35 115.08 13.34C115.08 15.33 113.46 16.96 111.47 16.96ZM111.47 10.95C111.31 10.95 111.16 10.97 111 11C110.85 11.03 110.7 11.08 110.55 11.14C110.41 11.2 110.27 11.27 110.14 11.36C110.01 11.44 109.89 11.54 109.78 11.65C109.67 11.76 109.57 11.88 109.48 12.01C109.4 12.15 109.32 12.28 109.26 12.43C109.2 12.57 109.16 12.72 109.13 12.88C109.1 13.03 109.08 13.18 109.08 13.34C109.08 13.5 109.1 13.65 109.13 13.81C109.16 13.96 109.2 14.11 109.26 14.25C109.32 14.4 109.4 14.54 109.48 14.67C109.57 14.8 109.67 14.92 109.78 15.03C109.89 15.14 110.01 15.24 110.14 15.33C110.27 15.41 110.41 15.49 110.55 15.55C110.7 15.61 110.85 15.65 111 15.68C111.16 15.71 111.31 15.73 111.47 15.73C111.62 15.73 111.78 15.71 111.93 15.68C112.09 15.65 112.24 15.61 112.38 15.55C112.53 15.49 112.66 15.41 112.79 15.33C112.92 15.24 113.05 15.14 113.16 15.03C113.27 14.92 113.37 14.8 113.45 14.67C113.54 14.54 113.61 14.4 113.67 14.25C113.73 14.11 113.78 13.96 113.81 13.81C113.84 13.65 113.86 13.5 113.86 13.34C113.86 13.18 113.84 13.03 113.81 12.88C113.78 12.72 113.73 12.57 113.67 12.43C113.61 12.28 113.54 12.15 113.45 12.01C113.37 11.88 113.27 11.76 113.16 11.65C113.05 11.54 112.92 11.44 112.79 11.36C112.66 11.27 112.53 11.2 112.38 11.14C112.24 11.08 112.09 11.03 111.93 11C111.78 10.97 111.62 10.95 111.47 10.95Z" fill="#6C0000" fill-opacity="1.000000" fill-rule="nonzero"/>
		<path id="path" d="M51.89 16.06C51.89 16.21 51.91 16.36 51.93 16.5C51.96 16.65 52.01 16.79 52.06 16.92C52.12 17.06 52.19 17.19 52.27 17.31C52.35 17.44 52.45 17.55 52.55 17.66C52.66 17.76 52.77 17.85 52.89 17.94C53.01 18.02 53.14 18.09 53.28 18.14C53.42 18.2 53.56 18.24 53.7 18.27C53.85 18.3 54 18.31 54.14 18.31C54.29 18.31 54.44 18.3 54.58 18.27C54.73 18.24 54.87 18.2 55 18.14C55.14 18.09 55.27 18.02 55.39 17.94C55.52 17.85 55.63 17.76 55.74 17.66C55.84 17.55 55.93 17.44 56.02 17.31C56.1 17.19 56.17 17.06 56.22 16.92C56.28 16.79 56.32 16.65 56.35 16.5C56.38 16.36 56.39 16.21 56.39 16.06C56.39 15.91 56.38 15.77 56.35 15.62C56.32 15.48 56.28 15.34 56.22 15.2C56.17 15.06 56.1 14.93 56.02 14.81C55.93 14.69 55.84 14.57 55.74 14.47C55.63 14.36 55.52 14.27 55.39 14.19C55.27 14.11 55.14 14.04 55 13.98C54.87 13.92 54.73 13.88 54.58 13.85C54.44 13.82 54.29 13.81 54.14 13.81C54 13.81 53.85 13.82 53.7 13.85C53.56 13.88 53.42 13.92 53.28 13.98C53.14 14.04 53.01 14.11 52.89 14.19C52.77 14.27 52.66 14.36 52.55 14.47C52.45 14.57 52.35 14.69 52.27 14.81C52.19 14.93 52.12 15.06 52.06 15.2C52.01 15.34 51.96 15.48 51.93 15.62C51.91 15.77 51.89 15.91 51.89 16.06Z" fill="#6C0000" fill-opacity="1.000000" fill-rule="nonzero"/>
	</g>
</svg>
