<svg width="80.000000" height="80.000000" viewBox="0 0 80 80" fill="none" xmlns="http://www.w3.org/2000/svg" xmlns:xlink="http://www.w3.org/1999/xlink">
	<desc>
			Created with Pixso.
	</desc>
	<defs>
		<clipPath id="clip58_1">
			<rect id="app-logo" width="80.000000" height="80.000000" fill="white" fill-opacity="0"/>
		</clipPath>
	</defs>
	<g clip-path="url(#clip58_1)">
		<path id="path" d="M19.84 36.75C19.84 37.19 19.85 37.63 19.87 38.08C19.89 38.52 19.93 38.96 19.97 39.4C20.01 39.83 20.07 40.27 20.13 40.71C20.2 41.15 20.27 41.58 20.36 42.01C20.44 42.45 20.54 42.88 20.65 43.3C20.75 43.73 20.87 44.16 21 44.58C21.13 45 21.27 45.42 21.41 45.84C21.56 46.25 21.72 46.66 21.89 47.07C22.06 47.48 22.24 47.88 22.43 48.28C22.62 48.68 22.82 49.08 23.02 49.46C23.23 49.85 23.45 50.24 23.68 50.62C23.9 50.99 24.14 51.37 24.38 51.73C24.63 52.1 24.88 52.46 25.15 52.82C25.41 53.17 25.68 53.52 25.96 53.86C26.24 54.2 26.53 54.54 26.83 54.86C27.12 55.19 27.43 55.51 27.74 55.82C28.05 56.13 28.37 56.44 28.7 56.73C29.02 57.03 29.36 57.32 29.7 57.6C30.04 57.88 30.39 58.15 30.74 58.41C31.1 58.68 31.46 58.93 31.82 59.17C32.19 59.42 32.56 59.66 32.94 59.88C33.32 60.11 33.71 60.33 34.09 60.54C34.48 60.74 34.88 60.94 35.28 61.13C35.68 61.32 36.08 61.5 36.49 61.67C36.89 61.84 37.31 61.99 37.72 62.14C38.14 62.29 38.56 62.43 38.98 62.56C39.4 62.69 39.83 62.8 40.25 62.91C40.68 63.02 41.11 63.12 41.54 63.2C41.98 63.29 42.41 63.36 42.85 63.43C43.29 63.49 43.72 63.55 44.16 63.59C44.6 63.63 45.04 63.67 45.48 63.69C45.92 63.71 46.37 63.72 46.81 63.72C47.25 63.72 47.69 63.71 48.13 63.69C48.57 63.67 49.01 63.63 49.45 63.59C49.89 63.55 50.33 63.49 50.76 63.43C51.2 63.36 51.63 63.29 52.07 63.2C52.5 63.12 52.93 63.02 53.36 62.91C53.79 62.8 54.21 62.69 54.63 62.56C55.06 62.43 55.48 62.29 55.89 62.14C56.31 61.99 56.72 61.84 57.13 61.67C57.53 61.5 57.94 61.32 58.34 61.13C58.74 60.94 59.13 60.74 59.52 60.54C59.91 60.33 60.29 60.11 60.67 59.88C61.05 59.66 61.42 59.42 61.79 59.17C62.16 58.93 62.52 58.68 62.87 58.41C63.23 58.15 63.57 57.88 63.91 57.6C64.26 57.32 64.59 57.03 64.92 56.73C65.24 56.44 65.56 56.13 65.87 55.82C66.19 55.51 66.49 55.19 66.79 54.86C67.08 54.54 67.37 54.2 67.65 53.86C67.93 53.52 68.2 53.17 68.47 52.82C68.73 52.46 68.98 52.1 69.23 51.73C69.47 51.37 69.71 50.99 69.94 50.62C70.16 50.24 70.38 49.85 70.59 49.46C70.8 49.08 71 48.68 71.18 48.28C71.37 47.88 71.55 47.48 71.72 47.07C71.89 46.66 72.05 46.25 72.2 45.84C72.35 45.42 72.48 45 72.61 44.58C72.74 44.16 72.86 43.73 72.97 43.3C73.07 42.88 73.17 42.45 73.26 42.01C73.34 41.58 73.42 41.15 73.48 40.71C73.55 40.27 73.6 39.83 73.64 39.4C73.69 38.96 73.72 38.52 73.74 38.08C73.76 37.63 73.77 37.19 73.77 36.75C73.77 36.31 73.76 35.87 73.74 35.43C73.72 34.99 73.69 34.55 73.64 34.11C73.6 33.67 73.55 33.23 73.48 32.79C73.42 32.36 73.34 31.92 73.26 31.49C73.17 31.06 73.07 30.63 72.97 30.2C72.86 29.77 72.74 29.35 72.61 28.92C72.48 28.5 72.35 28.08 72.2 27.67C72.05 27.25 71.89 26.84 71.72 26.43C71.55 26.02 71.37 25.62 71.18 25.22C71 24.82 70.8 24.43 70.59 24.04C70.38 23.65 70.16 23.27 69.94 22.89C69.71 22.51 69.47 22.14 69.23 21.77C68.98 21.4 68.73 21.04 68.47 20.69C68.2 20.33 67.93 19.98 67.65 19.64C67.37 19.3 67.08 18.97 66.79 18.64C66.49 18.31 66.19 17.99 65.87 17.68C65.56 17.37 65.24 17.07 64.92 16.77C64.59 16.47 64.26 16.19 63.91 15.91C63.57 15.63 63.23 15.35 62.87 15.09C62.52 14.83 62.16 14.57 61.79 14.33C61.42 14.08 61.05 13.85 60.67 13.62C60.29 13.39 59.91 13.18 59.52 12.97C59.13 12.76 58.74 12.56 58.34 12.37C57.94 12.18 57.53 12.01 57.13 11.84C56.72 11.67 56.31 11.51 55.89 11.36C55.48 11.21 55.06 11.07 54.63 10.95C54.21 10.82 53.79 10.7 53.36 10.59C52.93 10.49 52.5 10.39 52.07 10.3C51.63 10.22 51.2 10.14 50.76 10.08C50.33 10.01 49.89 9.96 49.45 9.91C49.01 9.87 48.57 9.84 48.13 9.82C47.69 9.8 47.25 9.78 46.81 9.78C46.37 9.78 45.92 9.8 45.48 9.82C45.04 9.84 44.6 9.87 44.16 9.91C43.72 9.96 43.29 10.01 42.85 10.08C42.41 10.14 41.98 10.22 41.54 10.3C41.11 10.39 40.68 10.49 40.25 10.59C39.83 10.7 39.4 10.82 38.98 10.95C38.56 11.07 38.14 11.21 37.72 11.36C37.31 11.51 36.89 11.67 36.49 11.84C36.08 12.01 35.68 12.18 35.28 12.37C34.88 12.56 34.48 12.76 34.09 12.97C33.71 13.18 33.32 13.39 32.94 13.62C32.56 13.85 32.19 14.08 31.82 14.33C31.46 14.57 31.1 14.83 30.74 15.09C30.39 15.35 30.04 15.63 29.7 15.91C29.36 16.19 29.02 16.47 28.7 16.77C28.37 17.07 28.05 17.37 27.74 17.68C27.43 17.99 27.12 18.31 26.83 18.64C26.53 18.97 26.24 19.3 25.96 19.64C25.68 19.98 25.41 20.33 25.15 20.69C24.88 21.04 24.63 21.4 24.38 21.77C24.14 22.14 23.9 22.51 23.68 22.89C23.45 23.27 23.23 23.65 23.02 24.04C22.82 24.43 22.62 24.82 22.43 25.22C22.24 25.62 22.06 26.02 21.89 26.43C21.72 26.84 21.56 27.25 21.41 27.67C21.27 28.08 21.13 28.5 21 28.92C20.87 29.35 20.75 29.77 20.65 30.2C20.54 30.63 20.44 31.06 20.36 31.49C20.27 31.92 20.2 32.36 20.13 32.79C20.07 33.23 20.01 33.67 19.97 34.11C19.93 34.55 19.89 34.99 19.87 35.43C19.85 35.87 19.84 36.31 19.84 36.75Z" fill="#38BFF2" fill-opacity="1.000000" fill-rule="nonzero"/>
		<path id="path" d="M46.81 64.33C31.6 64.33 19.22 51.96 19.22 36.75C19.22 21.54 31.6 9.17 46.81 9.17C62.01 9.17 74.39 21.54 74.39 36.75C74.39 51.96 62.01 64.33 46.81 64.33ZM46.81 10.4C32.27 10.4 20.45 22.22 20.45 36.75C20.45 51.28 32.27 63.11 46.81 63.11C61.34 63.11 73.16 51.28 73.16 36.75C73.16 22.22 61.34 10.4 46.81 10.4Z" fill="#6B0204" fill-opacity="1.000000" fill-rule="nonzero"/>
		<path id="path" d="M15.92 60.2C16.25 60.63 16.09 61.32 15.55 61.73L10.45 65.64C9.92 66.05 9.21 66.03 8.88 65.6C8.55 65.16 8.71 64.48 9.24 64.07L14.35 60.15C14.88 59.74 15.59 59.76 15.92 60.2ZM17.09 66.6C17.43 67.04 17.26 67.72 16.73 68.13L11.62 72.05C11.09 72.46 10.39 72.44 10.05 72C9.72 71.57 9.88 70.88 10.42 70.47L15.52 66.56C16.06 66.15 16.76 66.17 17.09 66.6ZM10.04 57.4C10.37 57.84 10.21 58.52 9.67 58.93L4.57 62.85C4.03 63.26 3.33 63.24 3 62.8C2.66 62.37 2.83 61.68 3.36 61.27L8.47 57.36C9.83 56.31 10.17 57.57 10.04 57.4Z" fill="#6C0000" fill-opacity="1.000000" fill-rule="nonzero"/>
		<path id="path" d="M26.25 35.27C26.25 35.27 18.88 30.79 5.58 42.05L18.4 47.7L26.25 35.27Z" fill="#BED5E9" fill-opacity="1.000000" fill-rule="nonzero"/>
		<path id="path" d="M18.63 48.47L4.44 42.22L5.19 41.58C12.8 35.13 18.55 33.78 22.03 33.78C24.94 33.78 26.5 34.71 26.57 34.75L27.1 35.07L18.63 48.47ZM6.74 41.89L18.16 46.92L25.35 35.54C24.73 35.31 23.61 35.01 22.03 35.01C18.87 35.01 13.68 36.22 6.74 41.89Z" fill="#6C0000" fill-opacity="1.000000" fill-rule="nonzero"/>
		<path id="path" d="M42.09 55.94C42.09 55.94 44.51 64.22 30.19 74.14L28.06 60.3L42.09 55.94Z" fill="#BED5E9" fill-opacity="1.000000" fill-rule="nonzero"/>
		<path id="path" d="M29.73 75.2L27.37 59.87L42.51 55.17L42.68 55.76C42.79 56.12 45.06 64.59 30.54 74.64L29.73 75.2ZM28.75 60.73L30.64 73.06C41.43 65.3 41.79 58.73 41.6 56.73L28.75 60.73Z" fill="#6C0000" fill-opacity="1.000000" fill-rule="nonzero"/>
		<path id="path" d="M45.39 53.36C57.22 44.29 63.28 32.32 58.91 26.63C54.55 20.94 41.42 23.68 29.59 32.75C21.88 38.66 16.63 45.8 15.11 51.63C15.09 51.67 15.08 51.71 15.08 51.75C15.07 51.95 22.42 54.31 22.93 62.04C22.94 62.13 22.97 62.21 23.03 62.28C23.1 62.38 23.2 62.44 23.31 62.46C23.35 62.46 23.38 62.46 23.42 62.45C29.44 62.49 37.69 59.27 45.39 53.36Z" fill="#BED5E9" fill-opacity="1.000000" fill-rule="nonzero"/>
		<path id="path" d="M23.34 63.07L23.21 63.06C22.96 63.03 22.71 62.88 22.54 62.66C22.41 62.48 22.33 62.29 22.32 62.07C22.04 57.91 19.65 54.7 15.21 52.53C14.76 52.31 14.44 52.15 14.47 51.71C14.47 51.63 14.49 51.55 14.52 51.47C16.14 45.26 21.63 38.08 29.21 32.27C36.74 26.5 45.05 23.05 51.46 23.05C55.04 23.05 57.79 24.16 59.4 26.26C63.96 32.21 57.85 44.59 45.77 53.85C38.24 59.62 29.93 63.07 23.53 63.07L23.34 63.07ZM15.8 51.45C20.57 53.8 23.17 57.3 23.53 61.84C29.67 61.84 37.71 58.49 45.02 52.88C56.56 44.02 62.58 32.42 58.42 27C57.06 25.22 54.65 24.28 51.46 24.28C45.32 24.28 37.28 27.63 29.96 33.24C22.73 38.79 17.46 45.57 15.8 51.45Z" fill="#6C0000" fill-opacity="1.000000" fill-rule="nonzero"/>
		<path id="path" d="M39.32 56.92L24.42 37.29C23.61 38.15 22.83 39.03 22.08 39.94L36.15 58.48C37.22 58 38.28 57.48 39.32 56.92Z" fill="#FFFFFF" fill-opacity="1.000000" fill-rule="nonzero"/>
		<path id="path" d="M35.95 59.24L21.3 39.93L21.61 39.56C22.36 38.63 23.15 37.73 23.97 36.87L24.47 36.34L40.24 57.13L39.61 57.47C38.56 58.03 37.49 58.56 36.4 59.04L35.95 59.24ZM22.86 39.96L36.34 57.72C37.03 57.4 37.72 57.07 38.39 56.72L24.37 38.24C23.85 38.8 23.35 39.37 22.86 39.96Z" fill="#6C0000" fill-opacity="1.000000" fill-rule="nonzero"/>
		<path id="path" d="M32.76 60.53L19.39 43.1C18.85 43.77 18.24 44.73 17.82 45.73L29.72 61.43C30.57 61.32 31.97 60.87 32.76 60.53Z" fill="#FFFFFF" fill-opacity="1.000000" fill-rule="nonzero"/>
		<path id="path" d="M29.45 62.09L17.11 45.82L17.25 45.49C17.65 44.55 18.25 43.54 18.91 42.72L19.4 42.1L33.72 60.78L33 61.09C32.18 61.45 30.72 61.92 29.8 62.04L29.45 62.09ZM18.53 45.65L29.99 60.76C30.52 60.66 31.19 60.46 31.78 60.25L19.4 44.12C19.07 44.61 18.78 45.12 18.53 45.65Z" fill="#6C0000" fill-opacity="1.000000" fill-rule="nonzero"/>
		<path id="path" d="M37.91 38.45C37.91 38.64 37.92 38.82 37.94 39C37.95 39.18 37.98 39.36 38.02 39.54C38.05 39.72 38.09 39.9 38.15 40.07C38.2 40.24 38.26 40.42 38.33 40.58C38.4 40.75 38.48 40.92 38.56 41.08C38.65 41.24 38.74 41.4 38.85 41.55C38.95 41.7 39.06 41.84 39.17 41.99C39.29 42.13 39.41 42.26 39.54 42.39C39.67 42.52 39.8 42.64 39.94 42.76C40.08 42.87 40.23 42.98 40.38 43.08C40.53 43.18 40.69 43.28 40.85 43.36C41.01 43.45 41.17 43.53 41.34 43.6C41.51 43.67 41.68 43.73 41.86 43.78C42.03 43.83 42.21 43.88 42.39 43.91C42.57 43.95 42.75 43.98 42.93 43.99C43.11 44.01 43.29 44.02 43.47 44.02C43.66 44.02 43.84 44.01 44.02 43.99C44.2 43.98 44.38 43.95 44.56 43.91C44.74 43.88 44.91 43.83 45.09 43.78C45.26 43.73 45.43 43.67 45.6 43.6C45.77 43.53 45.94 43.45 46.1 43.36C46.26 43.28 46.41 43.18 46.57 43.08C46.72 42.98 46.86 42.87 47 42.76C47.15 42.64 47.28 42.52 47.41 42.39C47.54 42.26 47.66 42.13 47.78 41.99C47.89 41.84 48 41.7 48.1 41.55C48.2 41.4 48.3 41.24 48.38 41.08C48.47 40.92 48.54 40.75 48.62 40.58C48.68 40.42 48.75 40.24 48.8 40.07C48.85 39.9 48.9 39.72 48.93 39.54C48.97 39.36 48.99 39.18 49.01 39C49.03 38.82 49.04 38.64 49.04 38.45C49.04 38.27 49.03 38.09 49.01 37.91C48.99 37.73 48.97 37.55 48.93 37.37C48.9 37.19 48.85 37.01 48.8 36.84C48.75 36.66 48.68 36.49 48.62 36.32C48.54 36.15 48.47 35.99 48.38 35.83C48.3 35.67 48.2 35.51 48.1 35.36C48 35.21 47.89 35.06 47.78 34.92C47.66 34.78 47.54 34.65 47.41 34.52C47.28 34.39 47.15 34.27 47 34.15C46.86 34.03 46.72 33.93 46.57 33.82C46.41 33.72 46.26 33.63 46.1 33.54C45.94 33.46 45.77 33.38 45.6 33.31C45.43 33.24 45.26 33.18 45.09 33.13C44.91 33.07 44.74 33.03 44.56 32.99C44.38 32.96 44.2 32.93 44.02 32.91C43.84 32.89 43.66 32.89 43.47 32.89C43.29 32.89 43.11 32.89 42.93 32.91C42.75 32.93 42.57 32.96 42.39 32.99C42.21 33.03 42.03 33.07 41.86 33.13C41.68 33.18 41.51 33.24 41.34 33.31C41.17 33.38 41.01 33.46 40.85 33.54C40.69 33.63 40.53 33.72 40.38 33.82C40.23 33.93 40.08 34.03 39.94 34.15C39.8 34.27 39.67 34.39 39.54 34.52C39.41 34.65 39.29 34.78 39.17 34.92C39.06 35.06 38.95 35.21 38.85 35.36C38.74 35.51 38.65 35.67 38.56 35.83C38.48 35.99 38.4 36.15 38.33 36.32C38.26 36.49 38.2 36.66 38.15 36.84C38.09 37.01 38.05 37.19 38.02 37.37C37.98 37.55 37.95 37.73 37.94 37.91C37.92 38.09 37.91 38.27 37.91 38.45Z" fill="#ECF3FE" fill-opacity="1.000000" fill-rule="nonzero"/>
		<path id="path" d="M43.47 44.63C40.07 44.63 37.3 41.86 37.3 38.45C37.3 35.05 40.07 32.28 43.47 32.28C46.88 32.28 49.65 35.05 49.65 38.45C49.65 41.86 46.88 44.63 43.47 44.63ZM43.47 33.5C40.74 33.5 38.52 35.72 38.52 38.45C38.52 41.18 40.74 43.4 43.47 43.4C46.2 43.4 48.42 41.18 48.42 38.45C48.42 35.72 46.2 33.5 43.47 33.5Z" fill="#6C0000" fill-opacity="1.000000" fill-rule="nonzero"/>
		<path id="path" d="M45.14 34.08C46.67 34.86 47.32 36.69 47.11 38.51C46.67 42.49 41.96 42.92 41.49 42.76C42.17 43.1 42.88 43.28 43.64 43.28C46.25 43.28 48.36 41.16 48.36 38.56C48.36 36.47 47.01 34.71 45.14 34.08Z" fill="#BED5E9" fill-opacity="1.000000" fill-rule="nonzero"/>
		<path id="path" d="M71.47 13.34C71.47 13.54 71.49 13.73 71.52 13.93C71.56 14.12 71.62 14.31 71.69 14.49C71.77 14.67 71.86 14.85 71.97 15.01C72.08 15.17 72.21 15.32 72.34 15.46C72.48 15.6 72.64 15.73 72.8 15.84C72.96 15.95 73.14 16.04 73.32 16.11C73.5 16.19 73.69 16.25 73.88 16.29C74.08 16.32 74.27 16.34 74.47 16.34C74.66 16.34 74.86 16.32 75.05 16.29C75.25 16.25 75.43 16.19 75.62 16.11C75.8 16.04 75.97 15.95 76.13 15.84C76.3 15.73 76.45 15.6 76.59 15.46C76.73 15.32 76.85 15.17 76.96 15.01C77.07 14.85 77.16 14.67 77.24 14.49C77.32 14.31 77.37 14.12 77.41 13.93C77.45 13.73 77.47 13.54 77.47 13.34C77.47 13.14 77.45 12.95 77.41 12.76C77.37 12.56 77.32 12.37 77.24 12.19C77.16 12.01 77.07 11.84 76.96 11.67C76.85 11.51 76.73 11.36 76.59 11.22C76.45 11.08 76.3 10.96 76.13 10.85C75.97 10.74 75.8 10.64 75.62 10.57C75.43 10.49 75.25 10.44 75.05 10.4C74.86 10.36 74.66 10.34 74.47 10.34C74.27 10.34 74.08 10.36 73.88 10.4C73.69 10.44 73.5 10.49 73.32 10.57C73.14 10.64 72.96 10.74 72.8 10.85C72.64 10.96 72.48 11.08 72.34 11.22C72.21 11.36 72.08 11.51 71.97 11.67C71.86 11.84 71.77 12.01 71.69 12.19C71.62 12.37 71.56 12.56 71.52 12.76C71.49 12.95 71.47 13.14 71.47 13.34Z" fill="#FFFFFF" fill-opacity="1.000000" fill-rule="nonzero"/>
		<path id="path" d="M74.47 16.96C72.47 16.96 70.85 15.33 70.85 13.34C70.85 11.35 72.47 9.73 74.47 9.73C76.46 9.73 78.08 11.35 78.08 13.34C78.08 15.33 76.46 16.96 74.47 16.96ZM74.47 10.95C74.31 10.95 74.16 10.97 74 11C73.85 11.03 73.7 11.08 73.55 11.14C73.41 11.2 73.27 11.27 73.14 11.36C73.01 11.44 72.89 11.54 72.78 11.65C72.67 11.76 72.57 11.88 72.48 12.01C72.4 12.15 72.32 12.28 72.26 12.43C72.2 12.57 72.16 12.72 72.13 12.88C72.09 13.03 72.08 13.18 72.08 13.34C72.08 13.5 72.09 13.65 72.13 13.81C72.16 13.96 72.2 14.11 72.26 14.25C72.32 14.4 72.4 14.54 72.48 14.67C72.57 14.8 72.67 14.92 72.78 15.03C72.89 15.14 73.01 15.24 73.14 15.33C73.27 15.41 73.41 15.49 73.55 15.55C73.7 15.61 73.85 15.65 74 15.68C74.16 15.71 74.31 15.73 74.47 15.73C74.62 15.73 74.78 15.71 74.93 15.68C75.09 15.65 75.24 15.61 75.38 15.55C75.53 15.49 75.66 15.41 75.79 15.33C75.92 15.24 76.04 15.14 76.16 15.03C76.27 14.92 76.37 14.8 76.45 14.67C76.54 14.54 76.61 14.4 76.67 14.25C76.73 14.11 76.78 13.96 76.81 13.81C76.84 13.65 76.86 13.5 76.86 13.34C76.86 13.18 76.84 13.03 76.81 12.88C76.78 12.72 76.73 12.57 76.67 12.43C76.61 12.28 76.54 12.15 76.45 12.01C76.37 11.88 76.27 11.76 76.16 11.65C76.04 11.54 75.92 11.44 75.79 11.36C75.66 11.27 75.53 11.2 75.38 11.14C75.24 11.08 75.09 11.03 74.93 11C74.78 10.97 74.62 10.95 74.47 10.95Z" fill="#6C0000" fill-opacity="1.000000" fill-rule="nonzero"/>
		<path id="path" d="M14.89 16.06C14.89 16.21 14.91 16.36 14.93 16.5C14.96 16.65 15.01 16.79 15.06 16.92C15.12 17.06 15.19 17.19 15.27 17.31C15.35 17.44 15.45 17.55 15.55 17.66C15.66 17.76 15.77 17.85 15.89 17.94C16.01 18.02 16.14 18.09 16.28 18.14C16.42 18.2 16.56 18.24 16.7 18.27C16.85 18.3 17 18.31 17.14 18.31C17.29 18.31 17.44 18.3 17.58 18.27C17.73 18.24 17.87 18.2 18 18.14C18.14 18.09 18.27 18.02 18.39 17.94C18.52 17.85 18.63 17.76 18.74 17.66C18.84 17.55 18.93 17.44 19.02 17.31C19.1 17.19 19.17 17.06 19.22 16.92C19.28 16.79 19.32 16.65 19.35 16.5C19.38 16.36 19.39 16.21 19.39 16.06C19.39 15.91 19.38 15.77 19.35 15.62C19.32 15.48 19.28 15.34 19.22 15.2C19.17 15.06 19.1 14.93 19.02 14.81C18.93 14.69 18.84 14.57 18.74 14.47C18.63 14.36 18.52 14.27 18.39 14.19C18.27 14.11 18.14 14.04 18 13.98C17.87 13.92 17.73 13.88 17.58 13.85C17.44 13.82 17.29 13.81 17.14 13.81C17 13.81 16.85 13.82 16.7 13.85C16.56 13.88 16.42 13.92 16.28 13.98C16.14 14.04 16.01 14.11 15.89 14.19C15.77 14.27 15.66 14.36 15.55 14.47C15.45 14.57 15.35 14.69 15.27 14.81C15.19 14.93 15.12 15.06 15.06 15.2C15.01 15.34 14.96 15.48 14.93 15.62C14.91 15.77 14.89 15.91 14.89 16.06Z" fill="#6C0000" fill-opacity="1.000000" fill-rule="nonzero"/>
	</g>
</svg>
